<svg width="397" height="172" viewBox="0 0 397 172" fill="none" xmlns="http://www.w3.org/2000/svg">
<path d="M6.51198 66.1643C2.11828 78.8571 6.49401 91.5484 14.6684 101.591C18.6004 106.422 26.4975 107.564 30.6518 112.096C34.2341 116.004 43.7215 116.556 48.6124 117.492C56.1232 118.93 65.1038 118.99 72.5875 117.327C76.9736 116.353 81.0049 113.844 85.1517 112.137C90.6859 109.858 97.2278 106.845 102 103.239C113.092 94.8588 115.512 80.4236 115.512 67.2353C115.512 61.5077 116.063 55.8886 113.617 50.5516C109.723 42.0565 99.2795 37.4657 91.2896 34.1152C74.4386 27.0486 56.2534 28.4181 38.8906 31.8907C27.9071 34.0874 15.7219 38.9333 10.7962 50.0161C8.88104 54.3252 4.28749 57.3575 4.28749 62.4568C4.28749 64.7798 2.9734 66.4518 2.43375 68.7183C1.77406 71.489 2.063 74.4471 2.063 77.2867" stroke="black" stroke-width="3" stroke-linecap="round"/>
<path d="M174.723 83.3245C175.077 87.5751 177.444 91.8213 178.76 95.8887C179.873 99.3307 181.09 99.5061 183.456 101.697C187.065 105.038 191.58 107.387 195.855 109.689C207.223 115.81 223.926 115.633 236.597 114.426C239.066 114.191 241.942 113.063 244.259 112.243C247.887 110.958 251.851 110.876 255.546 109.606C263.473 106.882 272.979 104.47 278.944 98.1544C281.038 95.937 283.076 92.1731 284.835 89.586C287.216 86.085 289.268 82.1181 289.613 77.8044C290.133 71.309 290.528 63.2335 289.49 56.7954C288.357 49.7732 283.623 44.3262 279.686 38.8347C272.52 28.8404 257.224 30.3008 246.689 29.8956C235.158 29.4521 223.899 28.2891 212.539 31.0902C205.021 32.944 197.134 33.8455 191.036 38.8347C187.685 41.5765 183.952 44.5031 181.767 48.1446C179.104 52.5832 178.354 57.2638 177.112 62.233C176.584 64.3455 174.624 65.7918 174.064 67.753C173.526 69.634 173.614 71.4882 172.828 73.3967C170.737 78.4753 172.498 83.2956 172.498 88.5149" stroke="black" stroke-width="3" stroke-linecap="round"/>
<path d="M202.888 61.9079C201.513 61.5642 206.087 59.712 204.737 62.262C203.812 64.0093 202.18 62.7433 202.18 61.1999" stroke="black" stroke-width="3" stroke-linecap="round"/>
<path d="M220.236 60.8458C220.503 63.2488 223.457 59.0328 222.144 58.7412C221.33 58.5604 219.969 59.8934 219.449 60.4131C218.622 61.2401 222.907 61.3789 219.056 60.8655C217.783 60.6957 220.267 58.0759 220.59 58.7215" stroke="black" stroke-width="3" stroke-linecap="round"/>
<path d="M75.4309 63.3242C74.2624 63.1944 74.2441 60.7462 75.3522 61.6326C75.7974 61.9888 77.1457 63.6231 76.0996 63.3242C71.4682 62.001 78.0251 60.6141 76.847 62.9702" stroke="black" stroke-width="3" stroke-linecap="round"/>
<path d="M94.5494 61.908C94.2747 61.908 92.4426 61.3734 93.2906 60.9245C94.6891 60.1841 94.4099 62.1744 94.1954 61.6916C93.9762 61.1984 93.9351 58.8442 95.0805 59.8624C96.7809 61.3738 94.3244 61.5539 93.4873 61.5539" stroke="black" stroke-width="3" stroke-linecap="round"/>
<path d="M218.92 77.2761C215.844 77.9412 209.777 76.3652 208.22 80.1872C207.45 82.0785 207.616 82.9044 209.872 83.3146C211.276 83.5697 212.879 84.6608 214.239 84.7111C217.466 84.8306 219.147 84.2878 221.477 81.9574C223.666 79.7691 217.171 79.0464 216.442 79.0464" stroke="black" stroke-width="3" stroke-linecap="round"/>
<path d="M267.964 31.6062C267.589 29.5396 267.058 28.3697 268.266 26.3214C269.665 23.9497 272.104 22.4965 274.759 21.993C276.957 21.5761 279.697 20.5607 281.755 21.842C284.292 23.4214 285.423 25.1389 286.083 28.083C286.975 32.0552 289.737 36.149 285.329 39.2061C283.164 40.7074 279.383 40.7601 277.477 38.8538" stroke="black" stroke-width="3" stroke-linecap="round"/>
<path d="M282.46 19.8287C287.755 12.0963 293.355 6.97902 302.592 4.17578C313.883 0.749295 325.102 0.973338 334.955 7.72411C341.964 12.5265 344.332 18.308 345.675 26.6737C347.722 39.4192 346.366 52.084 351.061 64.3715C353.83 71.6186 358.412 75.0662 364.751 79.3198C368.711 81.9774 373.25 85.9635 378.29 85.9635C379.495 85.9635 381.495 86.2961 382.115 85.0575" stroke="black" stroke-width="3" stroke-linecap="round"/>
<path d="M285.631 27.0764C290.923 27.4414 295.652 31.8146 299.472 35.1294C301.585 36.9636 302.785 39.5237 304.102 41.924C305.696 44.8295 307.624 47.6984 308.506 50.9333C310.215 57.1985 309.545 63.6072 310.192 70.0087C310.522 73.276 311.737 76.7652 312.91 79.8232C314.254 83.3263 315.385 87.0116 316.886 90.443C318.96 95.1833 322.716 95.9869 327.556 96.382C336.133 97.0822 345.845 97.9376 354.282 95.8284C364.167 93.3572 375.339 90.0215 382.568 82.7927" stroke="black" stroke-width="3" stroke-linecap="round"/>
<path d="M176.334 135.55C177.741 137.16 179.83 141.102 182.078 138.854C183.159 137.773 184.161 136.419 184.831 135.038C185.677 133.299 185.894 127.4 185.894 129.334C185.894 131.352 185.52 133.786 186.68 135.55C187.236 136.394 187.523 139.487 188.805 139.444C191.915 139.341 196.024 134.609 197.223 132.088C197.556 131.388 197.988 126.836 197.223 128.705C196.206 131.191 195.628 134.263 197.223 136.612C197.859 137.548 199.642 139.13 200.764 138.382" stroke="black" stroke-width="3" stroke-linecap="round"/>
<path d="M204.304 127.761C204.106 131.229 203.95 134.675 203.95 138.146C203.95 138.972 203.95 136.494 203.95 135.668C203.95 135.011 203.568 132.48 204.383 132.088C205.441 131.578 206.799 133.017 207.845 133.072C209.301 133.148 209.928 132.311 210.677 131.105C211.654 129.53 212.838 124.015 212.388 125.814C211.788 128.213 210.346 131.241 211.228 133.76C212.378 137.046 215.614 137.57 218.741 137.674C220.864 137.745 222.84 134.797 223.501 132.993C224.307 130.797 225.56 128.115 222.518 128.115C221.696 128.115 219.632 127.623 219.548 128.764C219.391 130.881 219.391 133.212 219.548 135.333C219.739 137.911 224.578 138.223 226.255 136.966" stroke="black" stroke-width="3" stroke-linecap="round"/>
<path d="M240.771 128.115C241.876 129.343 242.574 131.852 243.033 133.406C243.378 134.575 243.103 137.198 243.78 138.146C243.974 138.417 243.683 136.503 243.682 136.494C243.569 135.073 243.465 133.513 243.623 132.088C243.734 131.089 248.635 133.307 249.445 133.386C250.911 133.529 252.682 133.619 253.438 132.049C253.904 131.081 254.547 127.638 253.084 127.131C250.844 126.356 253.612 133.018 254.028 133.858C254.537 134.886 255.167 137.28 256.349 137.674" stroke="black" stroke-width="3" stroke-linecap="round"/>
<path d="M259.889 125.636C261.965 131.296 264.094 137.673 264.846 143.693" stroke="black" stroke-width="3" stroke-linecap="round"/>
<path d="M261.306 129.531C261.925 128.066 264.839 125.715 266.479 125.715C268.897 125.715 269.845 128.849 270.078 130.711C270.346 132.851 269.939 134.846 268.249 136.337C267.387 137.098 264.805 135.78 264.492 134.842" stroke="black" stroke-width="3" stroke-linecap="round"/>
<path d="M279.008 127.407C277.037 126.818 273.914 125.549 273.914 129C273.914 130.669 275.162 133.294 277.238 133.111C279.116 132.946 279.952 125.656 281.25 128.784C282.266 131.231 282.016 134.311 285.735 133.072" stroke="black" stroke-width="3" stroke-linecap="round"/>
<path d="M286.797 127.407C287.666 127.407 288.297 126.804 289 126.345C290.599 125.299 292.404 124.453 293.839 123.178C295.953 121.298 293.739 118.017 292.816 115.94C292.483 115.191 289.676 115.983 289.157 116.156C288.44 116.395 288.101 117.352 287.82 117.946C286.496 120.741 285.034 123.573 284.397 126.62C283.667 130.115 282.947 134.89 287.663 135.176C289.459 135.285 292.121 135.856 292.993 133.937C294.192 131.299 290.411 129.068 288.803 127.682C288.177 127.142 284.053 130.593 287.859 130.593" stroke="black" stroke-width="3" stroke-linecap="round"/>
<path d="M298.127 122.804C298.914 125.786 299.383 129.047 300.448 131.95C300.851 133.051 301.812 133.426 302.926 133.426C306.796 133.426 309.214 128.228 309.751 125.007C309.845 124.442 309.799 122.866 308.748 123.158C308.029 123.358 308.368 126.575 308.414 127.19C308.489 128.213 309.431 131.672 310.518 130.947" stroke="black" stroke-width="3" stroke-linecap="round"/>
<path d="M315.829 122.096C316.072 124.353 316.891 131.093 316.891 128.823" stroke="black" stroke-width="3" stroke-linecap="round"/>
<path d="M311.935 119.972H318.307" stroke="black" stroke-width="3" stroke-linecap="round"/>
<path d="M325.034 120.326C324.08 120.239 323.328 119.682 322.595 119.106C321.776 118.463 321.901 121.242 321.867 121.899C321.78 123.611 321.514 125.913 322.222 127.505C322.789 128.781 324.206 128.469 325.369 128.469C326.275 128.469 327.294 128.166 328.004 127.564C328.634 127.031 328.329 126.254 329.322 126.364C331.825 126.643 333.018 128.867 334.987 126.679C337.167 124.256 339.169 119.945 336.718 117.061C336.587 116.907 334.273 115.039 334.239 115.173C333.936 116.387 333.956 118.155 334.161 119.382C334.332 120.406 334.475 122.143 335.38 122.804C336.123 123.347 337.212 123.179 338.055 123.512C340.28 124.392 339.171 127.387 340.966 128.823" stroke="black" stroke-width="3" stroke-linecap="round"/>
<path d="M357.039 114.414C357.633 118.027 358.276 121.617 358.976 125.206" stroke="black" stroke-width="3" stroke-linecap="round"/>
<path d="M349.014 116.351C353.9 115.883 359.204 116.432 363.957 115.244" stroke="black" stroke-width="3" stroke-linecap="round"/>
<path d="M366.171 114.967C366.595 118.289 367.328 121.481 368.385 124.653" stroke="black" stroke-width="3" stroke-linecap="round"/>
<path d="M366.724 111.923C369.326 111.345 373.325 111.911 372.612 115.551C372.304 117.128 371.179 119.633 369.399 119.918C368.235 120.104 368.724 118.808 369.399 118.457C370.522 117.874 372.127 117.927 373.304 118.288C374.923 118.784 374.538 120.997 374.411 122.316C374.38 122.641 373.482 126.208 373.089 125.913C372.455 125.438 372.224 124.641 371.429 124.376" stroke="black" stroke-width="3" stroke-linecap="round"/>
<path d="M377.24 115.244C377.316 115.597 379.317 124.482 381.545 122.254C383.033 120.766 384.817 118.222 384.711 116.013C384.595 113.574 381.195 111.954 379.054 111.954C377.972 111.954 375.81 113.088 377.793 113.584" stroke="black" stroke-width="3" stroke-linecap="round"/>
<path d="M391.906 111.647C392.735 114.386 393.451 117.165 394.335 119.887C394.416 120.135 394.65 120.854 394.674 120.594C394.945 117.612 394.568 114.402 392.952 111.831C392.164 110.578 391.103 109.675 390 108.726C389.714 108.48 389.751 108.137 389.416 107.988C388.037 107.375 385.922 111.933 385.665 112.907C385.004 115.41 386.535 115.555 388.647 115.521C389.938 115.5 390.796 114.64 392.122 114.691C394.231 114.772 391.304 118.054 390.953 118.503C389.463 120.407 387.62 122.055 386.003 123.853C385.454 124.464 384.91 124.964 384.711 125.76" stroke="black" stroke-width="3" stroke-linecap="round"/>
<path d="M166.1 149.834C166.173 153.002 167.199 160.524 172.188 158.075C174.076 157.148 175.232 155.338 175.232 153.278C175.232 152.905 175.316 152.325 174.817 152.325C174.066 152.325 174.41 154.829 174.433 155.215C174.526 156.774 175.21 160.042 177.338 160.042C179.326 160.042 180.541 158.084 181.258 156.476C181.666 155.562 181.624 154.549 181.289 153.616C181.285 153.605 180.502 152.007 180.275 152.386C179.432 153.791 181.446 157.97 182.719 158.797C184.48 159.942 187.125 158.058 188.576 157.214C190.34 156.188 190.569 155.336 188.976 153.662C187.373 151.98 183.863 149.354 181.366 151.018C180.231 151.775 180.453 153.831 180.613 154.969C180.857 156.701 181.551 157.387 183.196 157.644C185.219 157.96 187.264 157.699 188.669 159.52C190.169 161.464 190.615 165.326 189.991 167.652C189.348 170.047 186.305 170.04 184.395 169.297C183.475 168.94 182.008 168.255 181.504 167.33C181.053 166.499 182.757 165.681 183.257 165.331" stroke="black" stroke-width="3" stroke-linecap="round"/>
<path d="M192.112 155.369C194.858 155.369 197.607 155.412 200.352 155.369C201.307 155.354 201.729 154.96 202.074 154.077C203.189 151.228 201.864 148.649 198.415 149.742C196.759 150.267 194.488 151.322 193.342 152.663C192.137 154.073 192.953 156.086 193.557 157.583C193.932 158.51 194.363 160.226 195.494 160.565C196.769 160.948 198.543 160.627 199.86 160.627" stroke="black" stroke-width="3" stroke-linecap="round"/>
<path d="M206.225 155.922C209.846 160.174 213.766 155.624 214.619 151.772C214.853 150.713 215.535 147.897 213.958 147.897C212.414 147.897 211.257 148.211 209.838 148.743C208.515 149.239 208.983 151.18 209.546 152.048C210.119 152.933 211.318 154.727 212.175 155.323C212.995 155.894 214.521 155.701 215.019 156.753C215.299 157.344 214.729 158.376 215.357 158.69" stroke="black" stroke-width="3" stroke-linecap="round"/>
<path d="M221.168 159.243C221.1 158.701 220.691 157.936 220.338 157.583" stroke="black" stroke-width="3" stroke-linecap="round"/>
<path d="M231 159.448C232.919 160.608 234.363 161.896 236.154 160.136C238.2 158.123 239.556 155.908 240.031 152.404C240.22 151.007 241.772 145 239.983 145C238.338 145 236.758 145.146 235.303 146.376C234.136 147.362 231.944 151.693 233.057 153.714C233.755 154.982 236.479 153.968 237.383 153.682C239.029 153.16 239.399 154.229 239.936 156.27C240.245 157.445 240.815 158.716 241 159.742" stroke="black" stroke-width="3" stroke-linecap="round"/>
<path d="M250.894 149.759C251.689 152.939 253.057 156.073 253.057 159.396C253.057 159.831 253.072 160.589 253.165 159.516C253.307 157.863 253.326 156.205 253.489 154.553C253.635 153.077 253.698 151.279 255.027 150.324C256.638 149.166 258.353 150.45 259.233 151.946C260.049 153.333 259.895 154.848 260.194 156.344C260.379 157.268 260.853 154.576 261.131 153.676C261.521 152.415 261.886 151.152 262.381 149.927C262.899 148.647 263.8 149.72 264.087 150.6C264.726 152.554 264.894 154.616 265.818 156.464" stroke="black" stroke-width="3" stroke-linecap="round"/>
<path d="M268.629 152.787C271.117 152.314 273.124 151.39 273.916 148.786C274.439 147.069 271.585 146.392 270.456 147.115C268.398 148.434 267.111 151.63 268.605 153.772C270.032 155.817 272.419 156.031 274.685 156.031" stroke="black" stroke-width="3" stroke-linecap="round"/>
<path d="M277.93 149.11C277.801 150.955 278.396 155.364 280.621 155.911C281.295 156.076 281.831 155.264 282.123 154.829C283.078 153.412 282.352 151.813 281.919 150.311C281.46 148.719 281.399 146.634 279.708 145.914C279.498 145.824 277.978 145.656 277.978 145.493C277.978 144.2 279.424 142.744 280.621 142.453C282.427 142.014 284.718 142.405 286.581 142.405" stroke="black" stroke-width="3" stroke-linecap="round"/>
<path d="M285.932 153.436C286.164 155.853 286.421 158.15 289.249 157.329C291.17 156.771 292.36 154.734 293.274 153.135C294.297 151.346 294.667 149.044 294.584 146.995C294.516 145.336 293.235 144.038 291.736 145.061C291.098 145.496 287.307 149.975 289.405 149.975C291.164 149.975 291.998 150.346 293.406 151.441C293.923 151.843 295.308 153.181 295.437 153.76C295.649 154.717 295.745 155.61 296.314 156.464" stroke="black" stroke-width="3" stroke-linecap="round"/>
<path d="M306.047 143.487C306.047 146.029 306.258 148.417 306.648 150.912C306.729 151.431 306.696 153.011 306.696 152.486C306.696 150.564 306.092 148.491 306.504 146.599C306.647 145.94 307.37 143.992 308.258 144.135C309.407 144.321 310.848 145.706 311.839 146.346C312.897 147.03 312.752 148.277 312.752 149.374C312.752 149.648 312.52 151.593 312.872 151.693C313.749 151.944 315.331 149.268 315.588 148.725C316.045 147.758 316.654 145.82 316.212 144.76C316.069 144.416 315.969 144.777 315.948 144.928C315.794 146.074 315.99 147.413 316.441 148.473C317.222 150.309 319.771 152.349 321.355 150.408C322.242 149.32 322.929 148.875 322.917 147.38C322.906 145.86 322.979 142.605 320.959 142.201C318.946 141.798 316.996 141.866 316.429 144.135" stroke="black" stroke-width="3" stroke-linecap="round"/>
<path d="M328.973 142.189C330.4 142.605 328.603 139.724 327.555 139.641C326.397 139.55 325.72 143.205 325.585 143.751C325.438 144.343 323.272 151.27 325.597 150.876C327.917 150.483 330.414 148.241 331.677 146.346C331.766 146.212 332.278 150.134 332.326 150.468C332.6 152.397 332.899 154.278 332.578 156.223C332.445 157.033 332.151 159.808 330.944 159.984C329.432 160.205 326.77 158.257 325.705 157.401C323.303 155.471 327.741 153.391 328.973 152.354" stroke="black" stroke-width="3" stroke-linecap="round"/>
<path d="M333.948 140.675C334.234 142.562 334.612 148.135 337.757 147.019C340.387 146.086 341.346 143.257 341.266 140.687C341.199 138.559 338.971 135.779 336.652 137.503C335.113 138.646 334.882 140.872 334.849 142.621C334.826 143.838 334.633 145.982 335.678 146.911C336.081 147.269 336.626 147.145 337.12 147.163C338.571 147.219 339.801 147.977 340.893 148.894C343.52 151.099 343.825 153.4 342.864 156.56C342.74 156.967 342.405 159.184 341.638 159.011C340.587 158.775 339.613 157.806 338.754 157.209C336.497 155.637 339.038 153.325 340.004 151.489" stroke="black" stroke-width="3" stroke-linecap="round"/>
<path d="M344.33 143.27C345.435 143.152 346.54 142.419 347.622 142.093C349.138 141.636 349.304 140.547 349.304 139.089C349.304 138.219 349.288 136.773 348.319 136.385C347.135 135.912 345.977 136.203 345.099 137.094C342.516 139.713 343.169 143.781 346.168 145.722C346.885 146.185 348.7 145.921 349.497 145.842C350.536 145.738 351.522 145.206 352.549 145.001" stroke="black" stroke-width="3" stroke-linecap="round"/>
<path d="M355.144 136.133C355.819 142.45 356.442 148.977 356.442 155.166" stroke="black" stroke-width="3" stroke-linecap="round"/>
<path d="M356.009 141.107C356.301 140.266 357.124 136.832 358.436 136.782C360.283 136.711 361.663 138.056 362.185 139.762C362.732 141.545 359.906 143.333 358.797 144.328C357.858 145.17 357.524 145.217 356.442 145.001" stroke="black" stroke-width="3" stroke-linecap="round"/>
<path d="M365.31 134.835C367.046 136.276 368.67 137.841 370.404 139.281C371.178 139.923 372.038 140.623 373.048 140.843C373.82 141.011 374.761 140.913 375.475 140.675" stroke="black" stroke-width="3" stroke-linecap="round"/>
<path d="M373.745 135.051C371.501 136.672 370.12 139.812 368.349 141.936C367.547 142.9 366.625 143.717 365.958 144.784" stroke="black" stroke-width="3" stroke-linecap="round"/>
<path d="M369.419 135.051C370.948 138.668 372.663 142.297 372.663 146.298" stroke="black" stroke-width="3" stroke-linecap="round"/>
<path d="M378.503 133.537C378.548 134.834 378.886 138.845 380.882 138.944C381.774 138.989 382.393 139.033 382.781 138.079C383.14 137.193 383.451 136.228 383.478 135.267C383.482 135.109 383.475 133.129 383.478 133.129C383.996 133.129 383.624 134.156 383.718 134.667C383.878 135.535 384.055 136.411 384.439 137.214C385.11 138.619 385.908 139.543 386.241 141.131C386.891 144.222 387.371 147.018 387.371 150.191C387.371 151.673 386.236 151.639 384.799 151.393C381.261 150.786 382.072 148.464 382.829 145.793C383.341 143.985 383.512 142.866 384.992 141.756" stroke="black" stroke-width="3" stroke-linecap="round"/>
<path d="M203.95 46.6839C201.984 46.6839 200.91 46.5311 199.347 47.7461C198.421 48.4667 197.131 48.2382 196.515 49.1622" stroke="black" stroke-width="3" stroke-linecap="round"/>
<path d="M217.05 44.9138C218.702 44.9138 220.354 44.9138 222.006 44.9138C223.272 44.9138 223.47 45.2835 224.485 45.6219" stroke="black" stroke-width="3" stroke-linecap="round"/>
<path d="M82.1258 85.6314C82.7284 86.234 83.1955 86.1677 83.8914 86.5706C84.5913 86.9758 85.0801 87.3606 85.8824 87.5285C87.6137 87.8909 89.3941 87.9981 91.1606 87.9981C91.9545 87.9981 92.932 88.1453 93.6963 87.923C94.6385 87.6489 95.4648 87.0659 96.3917 86.8242C97.5671 86.5175 98.3751 85.7868 99.3688 85.1243" stroke="black" stroke-width="3" stroke-linecap="round"/>
<path d="M73.6733 46.2429C72.9293 46.2429 72.2516 45.9048 71.4945 45.9048C70.7 45.9048 70.0804 46.4037 69.3532 46.6655C67.6339 47.2845 66.0091 47.9619 64.3756 48.7786" stroke="black" stroke-width="3" stroke-linecap="round"/>
<path d="M88.8878 43.369C86.9944 43.91 92.8528 43.0453 94.7951 43.369C95.8068 43.5376 97.0665 44.0446 98.007 44.4678C98.3472 44.6209 99.2195 44.9299 99.3688 45.2286" stroke="black" stroke-width="3" stroke-linecap="round"/>
<path d="M68.2637 71.2622C71.8809 70.8303 75.4812 70.2783 79.0829 69.7407" stroke="#FF94B6" stroke-width="2" stroke-linecap="round"/>
<path d="M71.1376 73.6289C72.7624 73.2013 74.7213 73.1894 76.2091 72.4456" stroke="#FF94B6" stroke-width="2" stroke-linecap="round"/>
<path d="M74.0114 75.3194C75.3253 75.2756 76.5893 74.8123 77.8996 74.8123" stroke="#FF94B6" stroke-width="2" stroke-linecap="round"/>
<path d="M98.0164 66.6977C99.8494 66.3922 101.61 66.3596 103.464 66.3596C104.369 66.3596 106.062 66.5183 106.807 66.0215" stroke="#FF94B6" stroke-width="2" stroke-linecap="round"/>
<path d="M99.0308 69.0645C101.066 68.8949 103.069 68.5574 105.117 68.5574" stroke="#FF94B6" stroke-width="2" stroke-linecap="round"/>
<path d="M100.552 71.9382C101.404 71.9259 102.342 71.9732 103.088 71.6001" stroke="#FF94B6" stroke-width="2" stroke-linecap="round"/>
<path d="M17.2231 139.596C15.1987 137.716 13.6818 137.872 12.8571 140.641C12.0062 143.498 12.3232 145.669 14.5635 147.744C15.422 148.539 16.3879 149.717 17.669 149.527C20.2538 149.144 22.4283 147.299 24.9714 146.791" stroke="black" stroke-width="3" stroke-linecap="round"/>
<path d="M24.1412 139.596C24.8692 142.69 26.0959 145.655 26.7855 148.758C26.9448 149.475 26.3515 151.397 26.9392 150.957C27.8512 150.273 27.6926 147.034 27.7233 146.053C27.7624 144.802 27.6992 143.686 28.3536 142.578C29.2758 141.018 31.1823 140.709 32.1355 142.563C33.0318 144.306 32.9964 146.531 32.9964 148.451" stroke="black" stroke-width="3" stroke-linecap="round"/>
<path d="M44.0653 142.64C43.473 142.002 41.0743 138.499 40.145 139.15C38.6891 140.169 37.6561 142.734 37.2856 144.438C36.9333 146.058 39.6845 149.168 41.0521 147.421C42.2933 145.835 42.944 144.133 43.4503 142.209C43.5871 141.689 43.9555 140.778 44.1268 141.84C44.4429 143.8 44.9645 149.198 48.2161 147.897" stroke="black" stroke-width="3" stroke-linecap="round"/>
<path d="M59.8385 137.935C58.7928 139.904 57.2058 138.319 55.5493 137.951C53.7619 137.554 52.6524 140.554 52.367 141.809C51.9009 143.86 51.3781 147.248 54.4117 147.605C56.0062 147.793 57.3292 146.875 58.7316 146.237" stroke="black" stroke-width="3" stroke-linecap="round"/>
<path d="M63.9894 139.042C64.0234 140.505 63.9109 144.553 65.6497 145.468C67.236 146.303 69.066 141.63 69.5392 140.518C70.0561 139.303 70.7521 138.109 71.1688 136.859C71.568 135.662 71.4609 138.374 71.4609 138.427C71.4609 140.089 71.3338 141.812 71.4917 143.47C71.5656 144.246 72.0144 144.921 72.0144 145.684" stroke="black" stroke-width="3" stroke-linecap="round"/>
<path d="M77.8255 137.658C77.7591 138.678 76.5043 144.823 77.5796 145.514C78.3792 146.028 79.744 145.559 80.3775 145.007C82.3812 143.262 83.0559 137.9 80.808 136.152C79.6468 135.249 78.7344 134.853 77.3028 134.322C75.5432 133.671 74.8306 132.857 76.7494 131.94C78.1039 131.292 79.4956 130.398 80.931 129.941C82.7417 129.365 84.8221 129.777 86.6807 129.91" stroke="black" stroke-width="3" stroke-linecap="round"/>
<path d="M86.4039 137.935C87.0624 138.933 90.733 146.646 92.707 143.808C94.0138 141.929 94.6743 139.46 93.691 137.366C92.5072 134.846 90.8544 134.492 88.1719 135.091C87.195 135.309 85.8505 135.418 85.8505 136.552" stroke="black" stroke-width="3" stroke-linecap="round"/>
</svg>
