<svg width="865" height="212" viewBox="0 0 865 212" fill="none" xmlns="http://www.w3.org/2000/svg">
<path d="M155.62 167.918C146.339 167.918 134.29 167.454 125.472 164.123C117.927 161.273 111.469 156.723 104.074 153.688C97.7227 151.08 92.0386 143.461 91.2141 136.453C89.2238 119.535 90.652 105.288 103.442 92.9716C110.326 86.342 117.542 84.3369 126.632 82.3252C136.049 80.2411 143.054 77.7926 152.721 77.7926C166.901 77.7926 180.421 86.1049 190.827 95.396C199.044 102.733 203.054 115.343 203.054 126.387C203.054 137.15 191.886 149.973 183.659 156.007C174.868 162.453 166.852 168.867 155.62 168.867" stroke="black" stroke-width="3" stroke-linecap="round"/>
<path d="M630.913 152.739C624.021 153.55 616.018 156.282 609.093 154.057C602.465 151.926 596.247 147.693 590.225 144.306C580.547 138.863 579.684 123.823 579.684 113.843C579.684 108.248 582.496 104.204 585.429 99.5597C593.166 87.3087 601.482 79.8577 613.89 72.5748C627.92 64.3396 649.699 61.9101 665.013 68.3584C682.833 75.8614 695.292 85.934 701.116 104.778C703.016 110.922 703.36 117.902 702.961 124.278C702.604 129.995 698.873 132.502 694.95 136.084C690.122 140.493 683.014 144.421 676.978 146.836C672.043 148.81 667.195 151.689 661.904 152.528C658.584 153.055 655.709 153.553 652.522 154.636C639.171 159.176 625.923 159.38 611.94 159.38" stroke="black" stroke-width="3" stroke-linecap="round"/>
<path d="M680.245 74.9465C685.041 77.4487 705.829 84.6368 709.444 76.7385C713.408 68.0771 711.91 60.5657 703.804 55.9727C695.508 51.2713 691.612 48.8188 682.512 53.7591C676.171 57.201 671.287 67.8852 677.399 73.9978" stroke="black" stroke-width="3" stroke-linecap="round"/>
<path d="M697.322 53.1267C701.556 50.1848 730.133 30.1022 736.64 26.3525C745.177 21.4331 750.533 19.3238 760.251 19.7117C772.108 20.1849 789.853 23.0794 799.359 30.9906C803.735 34.6329 809.719 42.2576 812.113 47.6453C815.843 56.0381 815.591 65.7003 818.543 74.4195C821.004 81.6882 823.569 88.7405 825.606 96.1339C828.769 107.616 832.2 123.374 842.26 130.919C849.208 136.13 856.604 133.514 863.342 129.022" stroke="black" stroke-width="3" stroke-linecap="round"/>
<path d="M714.398 64.5109C727.085 64.7752 735.022 70.7568 739.802 82.536C741.348 86.3453 743.227 90.1469 744.282 94.1311C745.626 99.2101 745.243 104.52 746.864 109.521C748.646 115.014 748.621 120.745 750.448 126.228C751.88 130.523 753.296 134.831 754.665 139.141C757.304 147.456 761.119 157.37 766.787 164.123C779.72 179.533 808.627 174.126 824.024 166.969C828.155 165.05 832.171 164.247 835.778 161.277C839.047 158.585 842.101 155.711 845.844 153.688C851.365 150.704 853.472 145.534 857.65 141.355" stroke="black" stroke-width="3" stroke-linecap="round"/>
<path d="M144.235 167.918C139.874 172.279 134.597 175.138 130.216 179.619C126.66 183.255 124.238 187.78 120.729 191.425C118.357 193.888 114.385 196.151 113.139 199.436C111.934 202.615 110.268 205.299 107.236 206.814" stroke="black" stroke-width="3" stroke-linecap="round"/>
<path d="M162.26 165.072C166.341 169.444 172.158 175.646 173.592 181.621C174.361 184.823 176.832 187.076 177.44 190.265C178.804 197.43 180.832 205.09 186.926 209.661" stroke="black" stroke-width="3" stroke-linecap="round"/>
<path d="M626.17 159.38C616.939 164.239 612.299 178.549 607.618 187.419C605.416 191.591 602.767 195.304 600.977 199.699C599.887 202.375 598.149 205.256 595.812 206.814" stroke="black" stroke-width="3" stroke-linecap="round"/>
<path d="M644.195 155.585C653.081 164.693 661.9 173.671 669.177 184.151C671.444 187.415 673.348 191.59 676.872 193.744C681.157 196.362 681.194 196.977 681.194 202.071" stroke="black" stroke-width="3" stroke-linecap="round"/>
<path d="M609.093 179.302C598.235 179.302 592.819 173.182 583.848 167.865C577.071 163.849 569.698 160.521 562.608 157.483" stroke="black" stroke-width="3" stroke-linecap="round"/>
<path d="M665.066 175.508C678.486 173.52 692.857 167.554 704.911 161.699C709.717 159.365 712.645 154.974 717.244 151.79C719.276 150.384 722.8 148.269 723.885 146.098" stroke="black" stroke-width="3" stroke-linecap="round"/>
<path d="M181.234 188.789C183.48 188.565 185.086 186.816 186.505 185.205C188.875 182.515 191.652 182.223 194.727 180.567C201.353 176.999 208.842 172.959 214.966 168.656C218.776 165.978 221.789 162.394 225.612 159.591C230.233 156.202 234.501 152.397 239.104 148.944" stroke="black" stroke-width="3" stroke-linecap="round"/>
<path d="M119.569 188.789C112.725 186.913 105.091 186.214 98.4874 183.624C92.3662 181.224 87.4382 176.311 82.0435 172.714C78.0984 170.084 73.9616 166.793 69.8159 164.598C67.6062 163.428 66.8998 160.793 64.5454 159.38" stroke="black" stroke-width="3" stroke-linecap="round"/>
<path d="M212.958 64.5256C218.671 74.7491 221.183 87.5278 224.822 98.6344" stroke="black" stroke-width="3" stroke-linecap="round"/>
<path d="M216.665 72.682C217.004 65.0616 218.099 62.0152 225.934 64.2372C230.311 65.4786 232.687 67.5818 235.45 71.1578C236.356 72.3303 239.375 75.3986 239.116 77.2958C238.128 84.5435 224.813 84.546 219.631 84.546" stroke="black" stroke-width="3" stroke-linecap="round"/>
<path d="M252.999 91.9609C251.407 84.8287 250.519 77.4922 248.55 70.4575C247.53 66.8165 246.625 63.4358 247.808 59.747C248.984 56.0814 251.498 54.0355 255.511 54.9273C257.339 55.3335 260.115 59.4375 261.155 60.8181C264.496 65.252 265.191 70.1393 267.458 75.0301C268.907 78.1571 270.795 80.216 270.795 83.8044" stroke="black" stroke-width="3" stroke-linecap="round"/>
<path d="M251.516 72.682C256.464 70.6578 261.838 69.8494 267.087 68.9745" stroke="black" stroke-width="3" stroke-linecap="round"/>
<path d="M276.727 51.1787C276.727 46.6692 283.776 46.7297 287.025 46.7297C290.953 46.7297 291.419 47.5534 292.298 51.1787C293.013 54.13 294.107 58.1114 290.073 59.2115C288.441 59.6567 280.46 59.3351 286.531 59.3351C289.358 59.3351 296.196 58.9095 297.859 61.7244C299.192 63.9796 301.49 68.4079 301.196 71.199C300.726 75.6632 291.92 75.5449 288.961 75.6892C286.055 75.831 282.963 77.5881 281.176 74.9065" stroke="black" stroke-width="3" stroke-linecap="round"/>
<path d="M313.801 43.7637C313.801 50.7228 314.107 57.4874 315.696 64.2784C316.487 67.6563 316.438 73.0942 318.992 75.648" stroke="black" stroke-width="3" stroke-linecap="round"/>
<path d="M313.06 48.2127C313.132 45.7463 313.634 42.6196 316.067 41.2509C318.057 40.1312 324.739 40.0526 326.736 41.2509C329.563 42.9466 328.879 48.0229 328.59 50.7667C328.205 54.4198 324.864 55.6276 321.711 55.6276C317.749 55.6276 325.977 54.9067 326.983 54.8861C332.921 54.765 334.107 55.6188 335.305 61.8068C336.333 67.1196 336.099 67.6542 330.526 68.645C325.362 69.5631 319.783 68.9745 314.543 68.9745" stroke="black" stroke-width="3" stroke-linecap="round"/>
<path d="M351.618 44.5052C350.377 51.9515 350.894 54.8816 355.325 60.8181C357.085 63.1751 359.209 65.9626 362.081 67.0796C367.768 69.2914 375.809 67.2031 377.405 60.8181C379.64 51.878 373.333 39.7941 365.418 35.6896C362.33 34.0885 352.261 32.9369 350.876 37.0902" stroke="black" stroke-width="3" stroke-linecap="round"/>
<path d="M384.985 51.1786C383.327 44.2694 388.15 36.1699 393.059 31.6114C398.132 26.9005 402.781 50.4199 402.781 54.1446" stroke="black" stroke-width="3" stroke-linecap="round"/>
<path d="M379.794 48.2127C384.539 49.0451 414.823 48.2826 411.843 56.3691C411.182 58.1642 410.747 57.8521 408.713 57.8521" stroke="black" stroke-width="3" stroke-linecap="round"/>
<path d="M381.277 45.9882C381.277 49.9997 380.983 62.3011 387.209 62.3011" stroke="black" stroke-width="3" stroke-linecap="round"/>
<path d="M418.352 33.3828C419.348 41.3474 420.909 49.5747 424.119 56.9459C424.94 58.8314 425.862 62.8818 428.156 63.6193C436.547 66.3163 443.142 51.5754 444.634 45.741C445.63 41.8481 445.787 38.2519 445.787 34.2479C445.787 29.6959 445.666 33.5768 445.417 36.0192C444.867 41.4037 445.448 46.4769 445.746 51.8378C445.861 53.8981 445.101 57.1661 446.529 58.5936" stroke="black" stroke-width="3" stroke-linecap="round"/>
<path d="M462.842 37.0902C462.744 44.3545 462.1 51.5726 462.1 58.8408C462.1 59.7624 462.301 61.0602 461.688 61.8479C460.563 63.2955 460.617 58.2854 460.617 56.4515C460.617 53.1759 458.289 35.4533 462.1 33.5475C466.577 31.3093 469.36 42.2477 469.886 44.5876C470.343 46.6185 470.445 55.3571 473.635 52.1673C477.221 48.5811 478.4 43.1583 482.121 39.6443C482.209 39.5605 483.721 51.6924 483.975 53.7739C484.469 57.8254 482.862 61.2766 482.862 65.2671" stroke="black" stroke-width="3" stroke-linecap="round"/>
<path d="M510.298 42.2807C499.046 32.1541 496.209 48.4669 496.209 56.7399C496.209 62.7093 498.722 66.4437 503.459 70.128C507.504 73.274 514.784 70.3463 519.196 69.7161" stroke="black" stroke-width="3" stroke-linecap="round"/>
<path d="M542.923 45.2467C542.672 54.4284 541.045 64.5745 536.991 72.682" stroke="black" stroke-width="3" stroke-linecap="round"/>
<path d="M541.44 46.7297C539.878 42.4772 535.112 38.0521 530.565 41.9923C529.325 43.0667 526.721 44.2903 526.281 45.9882C525.507 48.9727 525.189 55.1868 527.517 57.6873C530.287 60.6627 534.132 58.5936 537.362 58.5936C539.208 58.5936 531.892 64.4859 531.801 64.5668C527.443 68.4407 523.842 72.8357 519.937 77.131" stroke="black" stroke-width="3" stroke-linecap="round"/>
<path d="M567.393 44.5052C560.264 51.9845 557.618 62.0332 553.304 71.199" stroke="black" stroke-width="3" stroke-linecap="round"/>
<path d="M551.821 83.8045C547.883 86.2278 545.115 83.8045 549.185 83.8045C550.519 83.8045 550.434 84.6747 550.338 85.8642C550.243 87.0606 548.097 86.7871 547.372 87.512" stroke="black" stroke-width="3" stroke-linecap="round"/>
<path d="M117.036 115.879C120.204 111.128 123.486 104.149 130.366 107.444C133.436 108.914 136.537 110.347 138.866 112.788C139.937 113.912 140.958 117.038 142.536 117.038" stroke="black" stroke-width="3" stroke-linecap="round"/>
<path d="M157.605 114.141C157.881 111.651 161.543 108.974 162.949 106.864C164.183 105.013 168.894 104.868 170.934 104.868C176.498 104.868 180.096 109.06 181.366 114.141" stroke="black" stroke-width="3" stroke-linecap="round"/>
<path d="M140.798 141.38C143.891 143.745 146.555 145.486 150.264 146.821C151.779 147.367 154.953 148.202 156.445 147.497C160.009 145.814 162.958 142.47 166.298 140.8" stroke="black" stroke-width="3" stroke-linecap="round"/>
<path d="M604.44 107.766C609.13 102.544 614.485 99.5875 621.247 98.042C624.233 97.3594 626.717 101.447 627.622 103.709" stroke="black" stroke-width="3" stroke-linecap="round"/>
<path d="M642.69 102.55C646.377 97.3147 651.46 91.6564 658.563 94.0817C662.592 95.4575 664.274 99.0665 666.452 101.97" stroke="black" stroke-width="3" stroke-linecap="round"/>
<path d="M623.565 127.47C626.688 129.414 629.359 131.527 633.127 131.527C637.75 131.527 642.811 129.739 646.844 127.567C649.064 126.371 651.042 124.558 651.963 122.254" stroke="black" stroke-width="3" stroke-linecap="round"/>
<path d="M610.991 18.0251C614.456 18.3139 618.58 17.9139 618.58 21.8726C618.58 29.1794 623.823 31.082 629.965 34.1528" stroke="#FF0004" stroke-width="3" stroke-linecap="round"/>
<path d="M70.2375 51.2293C66.1202 51.2293 65.595 58.4643 68.551 60.5054C72.3921 63.1576 72.8736 63.1929 68.3402 65.4596" stroke="#FF0004" stroke-width="3" stroke-linecap="round"/>
<path d="M422.202 107.202C416.111 109.315 413.64 112.047 417.88 117.848C422.422 124.064 420.452 124.806 415.561 130.919" stroke="#FF0004" stroke-width="3" stroke-linecap="round"/>
<path d="M300.769 132.817C299.29 133.31 294.031 133.945 293.18 135.346C290.556 139.667 295.195 143.37 297.923 146.098" stroke="#FF0004" stroke-width="3" stroke-linecap="round"/>
<path d="M479.123 129.971C480.87 129.971 489.772 128.871 490.402 130.603C491.573 133.823 484.679 136.095 489.084 136.559C496.356 137.324 488.681 147.712 487.661 151.79" stroke="#2600FF" stroke-width="3" stroke-linecap="round"/>
<path d="M532.25 5.69217C533.916 5.90047 533.151 8.83302 533.198 10.014C533.296 12.464 534.704 12.8897 536.255 14.4412C542.448 20.6344 539.898 23.0458 533.198 27.512" stroke="#2600FF" stroke-width="3" stroke-linecap="round"/>
<path d="M260.924 25.6147C271.94 25.89 256.142 28.4629 261.873 32.0447C267.634 35.6456 254.79 41.3799 252.386 42.6911" stroke="#2600FF" stroke-width="3" stroke-linecap="round"/>
<path d="M174.593 47.4345C179.482 47.4345 185.517 48.7073 180.496 54.2862C178.425 56.5872 185.608 59.3457 186.716 59.7148C189.498 60.6421 186.902 64.8677 185.978 66.4083" stroke="#2600FF" stroke-width="3" stroke-linecap="round"/>
<path d="M3.82927 140.406C12.6917 141.115 1.27011 146.744 2.0373 148.47C2.90402 150.42 10.4853 152.747 12.3675 153.688" stroke="#2600FF" stroke-width="3" stroke-linecap="round"/>
<path d="M832.036 35.1015C833.824 35.357 847.225 39.1116 845.528 41.4261C841.778 46.5395 839.399 46.7297 845.317 50.2806" stroke="#2600FF" stroke-width="3" stroke-linecap="round"/>
<path d="M741.91 180.251C743.452 180.069 752.77 177.618 754.032 179.039C755.415 180.594 752.455 185.645 751.819 186.997C749.677 191.548 752.721 192.584 757.089 192.584" stroke="#2600FF" stroke-width="3" stroke-linecap="round"/>
<path d="M369.075 147.996C364.663 148.547 371.466 156.181 371.974 157.535C373.843 162.521 374.028 165.152 369.075 168.867" stroke="#00A91F" stroke-width="3" stroke-linecap="round"/>
<path d="M418.407 7.58951C422.923 8.04623 432.061 6.76539 427.894 12.8073C425.774 15.8811 425.258 16.479 428.842 17.0764" stroke="#00A91F" stroke-width="3" stroke-linecap="round"/>
<path d="M25.6491 66.4083C16.6805 66.9359 33.2246 73.5305 26.5978 76.8439" stroke="#00A91F" stroke-width="3" stroke-linecap="round"/>
<path d="M56.0072 187.841C53.6451 190.417 51.7568 193.235 48.9447 195.377C46.846 196.976 44.1455 197.706 48.2069 198.751C55.7045 200.679 56.893 201.543 53.1611 207.763" stroke="#00A91F" stroke-width="3" stroke-linecap="round"/>
<path d="M120.518 19.9225C124.288 22.436 127.978 24.9919 124.787 29.4094C121.37 34.1411 125.03 35.158 129.056 38.8963" stroke="#FFF717" stroke-width="3" stroke-linecap="round"/>
<path d="M337.768 16.1277C338.694 17.5443 343.784 23.4153 341.563 18.9738" stroke="#FFF717" stroke-width="3" stroke-linecap="round"/>
<path d="M350.101 108.151C349.828 110.613 350.743 113.732 350.048 116.162C349.556 117.886 339.412 123.33 343.46 123.33" stroke="#FFF717" stroke-width="3" stroke-linecap="round"/>
<path d="M847.215 98.6638C847.089 103.962 844.513 107.476 850.482 109.574C854.841 111.105 853.855 113.575 853.855 117.638" stroke="#FFF717" stroke-width="3" stroke-linecap="round"/>
</svg>
