<svg width="842" height="239" viewBox="0 0 842 239" fill="none" xmlns="http://www.w3.org/2000/svg">
<path d="M202.652 219.565C177.266 211.994 139.511 194.984 129.555 167.912C123.856 152.414 123.756 132.823 123.756 116.394C123.756 107.818 128.971 95.7304 134.141 89.0838C146.699 72.9382 171.074 66.632 190.514 63.5944C214.689 59.8171 244.217 58.9157 266.982 67.5729C280.869 72.8538 293.107 80.4208 305.756 88.4095C319.036 96.7967 325.234 108.548 331.313 122.733C335.211 131.827 336.168 145.777 336.168 155.774C336.168 167.306 330.636 166.571 324.772 175.195C314.113 190.869 295.754 201.696 277.839 207.967C274.124 209.267 270.125 209.122 266.308 210.394C262.306 211.728 258.491 212.111 254.305 212.35C249.02 212.652 244.417 214.71 238.998 214.71C233.446 214.71 227.894 214.71 222.342 214.71C213.351 214.71 204.36 214.71 195.369 214.71" stroke="black" stroke-width="3" stroke-linecap="round"/>
<path d="M125.148 73.926C131.337 76.2262 137.792 79.1165 144.509 79.1165C147.847 79.1165 150.326 77.5393 153.407 76.4801C158.389 74.7675 165.172 71.1004 167.413 66.0579C170.066 60.0907 148.261 59.6259 144.757 60.4143C137.719 61.9978 130.14 66.5111 122.924 66.5111" stroke="black" stroke-width="3" stroke-linecap="round"/>
<path d="M158.515 58.3546C150.126 40.4382 141.619 20.8756 124.942 9.00398C115.916 2.5786 106.756 1.9715 96.1474 2.00097C82.9628 2.03759 70.212 2.19111 57.6721 6.44994C52.0084 8.37344 49.8131 15.8066 48.0326 20.9503C46.0507 26.6757 42.9614 34.4758 42.8421 40.5587C42.6502 50.3496 40.404 59.9276 39.835 69.6006C39.2291 79.9007 36.5133 89.849 34.0266 99.796C32.3189 106.627 31.5753 114.521 28.7537 121.011C26.7443 125.633 25.3025 130.498 23.1513 135.058C21.1031 139.401 19.5445 146.162 16.1483 149.559C11.7108 153.996 7.54794 153.043 2.18347 154.831C0.489671 155.396 11.0496 164.555 12.276 165.542C22.6686 173.901 40.2176 174.527 52.7287 171.062C74.5467 165.02 81.9791 137.089 86.2608 118.127C88.4197 108.567 89.1313 98.4235 89.5976 88.6324C89.8616 83.0871 89.35 74.6063 92.5223 69.8478C94.4478 66.9597 94.9013 62.6492 97.3421 60.2084C105.024 52.5266 123.468 55.9334 130.339 62.8036" stroke="black" stroke-width="3" stroke-linecap="round"/>
<path d="M173.399 128.422C176.802 127.632 180.757 127.098 183.824 125.295C185.094 124.547 186.175 124.572 187.639 124.35C191.373 123.785 195.188 122.599 198.812 121.577C201.022 120.954 203.607 120.749 205.853 121.302C207.407 121.684 208.973 122.296 210.574 122.403C210.792 122.418 210.324 122.955 210.22 123.111" stroke="black" stroke-width="3" stroke-linecap="round"/>
<path d="M242.084 117.092C253.753 113.613 266.25 108.129 278.748 109.736C281.806 110.129 283.922 111.255 284.924 114.26" stroke="black" stroke-width="3" stroke-linecap="round"/>
<path d="M269.7 113.198C270.152 113.702 274.768 117.678 273.201 118.686C272.628 119.054 271.906 119.423 271.273 119.02C269.519 117.904 269.286 113.95 269.72 111.998C269.869 111.324 273.771 111.025 274.381 111.703C275.44 112.88 274.728 116.837 273.948 118.076C271.052 122.675 268.401 108.607 273.575 111.624C274.454 112.137 275.087 114.335 274.302 115.165C273.154 116.381 273.572 113.055 273.948 112.49" stroke="black" stroke-width="3" stroke-linecap="round"/>
<path d="M198.536 123.111C198.536 124.821 197.498 128.313 198.34 129.996C199.404 132.125 201.431 131.285 201.703 129.11C201.822 128.155 202.872 123.633 201.29 124.173C200.762 124.354 199.391 124.379 199.264 125.078C198.952 126.793 199.517 128.235 199.913 129.818C200.031 130.289 200.634 131.254 200.149 131.254C199.609 131.254 198.026 130.786 197.671 130.33C196.818 129.233 197.331 126.167 197.474 124.881C197.669 123.129 199.83 121.851 201.192 123.485C201.947 124.391 201.369 127.216 201.369 128.422" stroke="black" stroke-width="3" stroke-linecap="round"/>
<path d="M230.755 168.075C240.317 168.075 258.016 170.893 258.016 156.746" stroke="black" stroke-width="3" stroke-linecap="round"/>
<path d="M164.548 91.2471C162.396 91.9195 160.534 92.6969 158.529 93.6467C157.269 94.2433 154.93 94.6325 154.005 95.6727C153.227 96.5484 151.91 95.9383 150.937 96.7348C150.171 97.3616 149.591 97.2659 148.616 97.2659" stroke="black" stroke-width="3" stroke-linecap="round"/>
<path d="M270.408 79.9175C275.805 80.0193 280.999 82.1498 285.986 83.812" stroke="black" stroke-width="3" stroke-linecap="round"/>
<path d="M596.365 157.209C585.646 157.209 576.459 153.866 566.993 149.012C556.788 143.778 546.538 136.654 540.011 127.096C532.721 116.421 531.463 103.69 527.735 91.628C523.512 77.9644 529.42 63.4671 536.715 51.9168C540.942 45.2242 545.171 38.6527 552.287 34.5328C559.696 30.2431 567.888 28.3851 576.015 25.9644C586.129 22.9515 597.571 24.6112 607.899 25.3877C623.97 26.5961 638.721 31.5166 653.295 38.1579C661.801 42.0343 670.413 51.1214 676.075 58.2607C680.848 64.2782 684.815 74.3652 686.044 81.9474C687.362 90.0754 687.922 97.9028 687.569 106.211C687.362 111.055 683.75 115.871 682.09 120.34C680.583 124.398 677.131 126.554 674.798 130.103C671.572 135.012 667.165 138.862 663.841 143.697C661.37 147.291 655.863 148.836 651.977 150.536C648.388 152.106 645.029 154.245 641.431 155.726C637.209 157.465 632.622 158.143 628.249 159.392C619.544 161.88 609.221 160.917 600.237 160.917C591.574 160.917 583.801 158.593 576.344 154.243" stroke="black" stroke-width="3" stroke-linecap="round"/>
<path d="M590.882 74.0444C588.356 73.7073 585.782 73.8805 583.244 73.6679C581.479 73.52 580.29 72.3723 578.635 72.1962C575.519 71.8645 572.291 72.6714 569.204 73.1242C566.401 73.5355 563.838 74.3379 561.133 74.894C557.897 75.5592 554.972 79.3026 552.058 80.9113" stroke="black" stroke-width="3" stroke-linecap="round"/>
<path d="M643.789 63.3541C633.086 61.6996 624.106 62.727 613.594 64.2691C610.226 64.7631 605.468 64.53 602.399 66.0415C601.501 66.4839 601.421 67.9536 600.614 68.5162" stroke="black" stroke-width="3" stroke-linecap="round"/>
<path d="M560.086 75.886C560.149 78.0939 559.377 80.1579 559.975 82.335C560.381 83.81 560.883 85.6637 561.712 86.9746C562.386 88.039 562.151 87.5673 562.743 86.3729C563.554 84.7352 563.305 82.1351 562.503 80.5035C562.244 79.9765 561.354 78.2619 560.587 78.454C560.084 78.5799 560.013 79.688 559.383 79.7804C559.126 79.818 559.606 79.3078 559.765 79.1028C560.146 78.6118 560.5 77.8643 561.005 77.4914C563.515 75.6398 565.58 81.8537 564.536 83.344C563.837 84.3413 562.645 84.7725 561.927 85.6845C560.837 87.07 560.224 85.3481 559.767 84.0903C559.059 82.1438 558.375 78.6582 559.728 76.8396C560.533 75.759 562.069 75.9413 562.963 76.6448C563.519 77.0828 564.733 77.4284 564.899 78.1943C565.08 79.0242 565.149 79.8938 565.272 80.7344C565.592 82.9147 566.336 87.409 562.901 85.5417" stroke="black" stroke-width="3" stroke-linecap="round"/>
<path d="M611.358 66.966C611.3 68.6577 610.37 69.7616 610.629 71.5323C610.772 72.5013 612.891 73.1739 613.803 73.0401C614.495 72.9386 615.219 72.8867 615.902 72.7322C617.212 72.4359 617.447 69.1695 617.072 68.2099C616.552 66.8786 615.062 66.7024 613.877 66.8761C612.463 67.0836 611.987 66.9856 611.72 68.4822C611.454 69.9781 611.493 77.5371 614.356 76.8124C615.129 76.6168 616.754 76.4228 617.13 75.5975C618.013 73.658 618.46 71.7192 617.15 69.9076C616.235 68.6414 615.329 68.2203 613.875 68.0263C612.529 67.8466 613.064 72.7853 613.279 73.5987C613.361 73.91 614.395 75.443 613.842 74.1532C613.47 73.2875 613.793 72.0153 613.987 71.1175C614.153 70.3514 614.84 69.0629 615.443 68.5422C616.015 68.0476 616.757 71.3583 616.814 71.7439C616.981 72.8827 616.363 73.6338 616.107 74.5512C615.866 75.4136 615.294 76.1194 614.165 75.7217C613.42 75.4592 614.007 72.4742 614.038 71.887" stroke="black" stroke-width="3" stroke-linecap="round"/>
<path d="M584.06 113.748C585.282 114.42 586.371 115.302 587.561 116.029C588.73 116.744 589.978 116.529 591.298 116.757C592.989 117.049 594.738 116.934 596.451 116.934C597.959 116.934 599.467 116.934 600.975 116.934C603.027 116.934 603.182 116.136 604.948 115.597C606.282 115.189 607.858 114.375 609.02 113.571C610.092 112.828 610.555 111.67 611.498 110.915C612.951 109.753 613.092 106.737 613.092 104.896" stroke="black" stroke-width="3" stroke-linecap="round"/>
<path d="M550.871 56C548.745 56.9571 546.077 56.8835 544.177 58.2649C543.176 58.9934 540.478 59.1201 540 60.0768" stroke="black" stroke-width="3" stroke-linecap="round"/>
<path d="M638.583 41.8761C643.442 42.3788 647.418 45.4086 651.683 47.5409" stroke="black" stroke-width="3" stroke-linecap="round"/>
<path d="M527.233 125.719C525.164 122.376 523.22 117.331 519.699 115.319C517.239 113.914 514.633 112.836 511.843 112.389C507.603 111.711 502.897 111.589 498.771 113.033C496.315 113.893 493.852 114.786 491.43 115.738C490.068 116.273 488.962 118.119 487.824 119.054C483.429 122.664 482.608 124.829 482.608 130.355C482.608 133.237 487.696 140.682 486.214 138.212C485.154 136.445 484.784 135.077 484.314 132.963C484.075 131.885 482.201 127.95 481.095 127.458C477.757 125.974 468.503 125.091 465.286 126.878C461.274 129.107 457.961 129.681 456.399 134.541C455.726 136.635 454.789 139.033 454.789 141.238C454.789 142.995 455.799 148.793 454.66 149.931C453.984 150.608 450.69 149.988 449.863 149.77C447.616 149.179 448.414 146.114 448.414 144.168C448.414 134.395 446.359 124.525 446.128 114.708C445.965 107.773 446.002 100.754 445.388 93.8437C444.792 87.14 442.108 80.5303 440.977 73.8813C440.494 71.0474 439.721 67.7507 439.721 64.866C439.721 63.0574 440.129 60.6854 439.592 58.9417C438.794 56.3475 439.903 55.3461 441.202 52.953C442.161 51.1857 443.03 49.4268 443.907 47.4794C445.099 44.8305 446.096 42.3268 446.096 39.3657C446.096 35.7631 445.979 34.4556 441.782 35.6308C437.808 36.7434 435.589 40.6581 434.247 44.1953C432.993 47.502 432.766 48.9006 432.766 44.6461C432.766 42.386 433.135 40.3595 431.929 38.4642C430.199 35.745 431.564 33.8766 427.872 37.2729C426.97 38.103 424.726 38.8437 424.653 40.2028C424.505 42.9313 424.927 45.9202 426.069 48.4132C427.118 50.7009 424.151 47.7304 423.526 47.1575C421.594 45.3871 420.908 43.9601 418.277 42.7142C415.748 41.5162 414.912 43.4806 415.508 45.9984C416.119 48.5763 417.184 50.7645 418.986 52.5666C419.138 52.7191 420.76 53.4598 419.887 53.2106C418.309 52.7595 416.301 51.8715 414.929 50.9568C413.047 49.7019 412.305 49.2181 409.874 49.2181C406.612 49.2181 406.632 54.0803 408.103 55.8186C408.783 56.6219 412.591 57.738 408.972 57.0421C405.502 56.3747 404.183 56.0593 400.891 57.9114C398.667 59.1624 395.908 62.9531 400.44 63.1274C402.665 63.2129 404.911 63.1274 407.137 63.1274C409.832 63.1274 416.442 62.0734 418.149 64.866C422.643 72.2206 422.334 82.0747 422.334 90.4307C422.334 104.54 423.263 118.481 423.493 132.545C423.632 141.016 424.14 149.432 426.681 157.562C429.092 165.277 428.75 173.927 432.766 181.098C436.168 187.173 443.73 188.89 450.41 188.89C456.791 188.89 463.089 189.47 469.471 189.47C475.514 189.47 481.759 189.668 487.759 188.826C493.606 188.005 500.008 185.183 505.597 183.417C515.988 180.133 525.402 175.286 535.025 170.345C540.45 167.559 547.009 164.407 549.836 158.754" stroke="black" stroke-width="3" stroke-linecap="round"/>
<path d="M700.722 87.0968C700.282 91.004 698.691 96.171 700.214 99.9288C701.278 102.555 702.661 105.013 704.577 107.089C707.491 110.244 711.114 113.249 715.25 114.665C717.711 115.507 720.2 116.328 722.692 117.077C724.093 117.499 726.104 116.732 727.577 116.7C733.262 116.58 735.247 115.386 738.663 111.043C740.445 108.778 741.048 99.7798 740.686 102.638C740.427 104.682 739.872 105.986 738.934 107.938C738.456 108.934 737.495 113.185 738.061 114.256C739.767 117.485 746.494 123.901 750.128 124.485C754.659 125.214 757.617 126.811 761.85 123.956C763.674 122.726 765.893 121.421 767.256 119.688C768.342 118.307 771.134 113.126 772.732 112.935C773.682 112.821 775.888 115.345 776.403 116.027C777.804 117.882 775.281 119.797 774.078 121.327C768.036 129.008 763.549 138.036 757.661 145.895C753.502 151.447 749.133 156.941 745.344 162.752C741.668 168.389 739.69 175.243 736.469 181.169C735.096 183.694 733.666 186.764 731.882 189.031C730.764 190.452 728.977 192.065 728.321 193.767C727.344 196.299 725.853 196.401 723.353 197.479C721.506 198.274 719.736 199.12 717.843 200.109C715.268 201.454 712.937 202.805 711.106 205.132C708.879 207.964 708.162 209.064 712.188 210.735C715.999 212.317 720.163 210.612 723.405 208.662C726.435 206.838 727.478 205.879 724.847 209.223C723.45 210.999 721.907 212.364 721.683 214.599C721.362 217.806 719.134 218.431 724.135 218.044C725.358 217.949 727.579 218.755 728.477 217.732C730.28 215.678 731.797 213.069 732.44 210.403C733.03 207.956 733.526 212.126 733.663 212.962C734.086 215.548 733.744 217.094 735.041 219.699C736.288 222.205 738.16 221.177 739.248 218.83C740.362 216.426 740.878 214.048 740.575 211.518C740.55 211.303 739.733 209.719 740.265 210.454C741.227 211.785 742.256 213.724 742.769 215.291C743.472 217.441 743.756 218.28 745.667 219.783C748.231 221.8 751.221 217.965 751.139 215.69C751.102 214.638 748.799 211.406 751.213 214.191C753.528 216.861 754.369 217.924 758.102 218.504C760.623 218.896 765.135 217.622 761.681 214.683C759.986 213.24 758.167 211.919 756.417 210.542C754.299 208.876 748.452 205.618 748.838 202.368C749.852 193.809 756.187 186.255 761.353 179.687C770.076 168.597 777.966 157.066 786.479 145.87C791.608 139.126 796.411 132.197 799.441 124.236C802.316 116.682 807.932 110.095 809.21 101.974C810.292 95.0965 805.41 89.0719 800.159 84.9417C795.144 80.9966 790.552 76.6476 785.536 72.7018C780.786 68.9655 776.001 64.949 770.764 61.9012C765.661 58.9312 758.884 57.1918 753.4 55.1247C743.203 51.2813 732.807 49.2704 722.188 47.2048C716.202 46.0404 709.097 44.4626 703.381 47.1583" stroke="black" stroke-width="3" stroke-linecap="round"/>
</svg>
