<svg width="432" height="147" viewBox="0 0 432 147" fill="none" xmlns="http://www.w3.org/2000/svg">
<path d="M78.5831 42.9802C74.4927 56.1604 69.4971 68.9495 78.9373 81.1663C80.3825 83.0366 83.2522 84.2402 85.1836 85.5451C87.3705 87.0228 89.1364 88.9746 91.3333 90.4391C96.2213 93.6978 101.852 96.3087 107.271 98.5207C112.891 100.815 120.043 101.473 126.042 101.515C135.51 101.581 145.314 102.391 154.505 99.7764C159.909 98.2386 165.423 96.1952 169.38 92.1134C174.605 86.7218 175.951 81.8099 177.107 74.7268C178.334 67.2119 176.933 59.951 173.34 53.3478C169.395 46.0979 165.56 38.3444 159.398 32.6127C148.667 22.6296 127.632 22.1665 113.904 25.0785C110.57 25.7856 107.235 26.6019 103.955 27.4611C101.156 28.1941 98.3711 30.8155 95.7121 32.0975C93.6997 33.0678 91.114 33.1882 89.2726 34.4157C87.6534 35.4952 86.3507 36.3576 84.5074 37.1847C82.4274 38.1181 76.0919 39.849 75.1058 41.8211" stroke="black" stroke-width="3" stroke-linecap="round"/>
<path d="M106.402 51.0938C109.927 45.6592 106.402 56.6593 106.402 51.6734C106.402 50.0081 106.107 49.279 108.012 49.3551C110.484 49.454 103.473 49.9501 106.981 48.196" stroke="black" stroke-width="3" stroke-linecap="round"/>
<path d="M133.061 49.9348C133.061 47.6702 135.959 46.7567 135.959 49.9348C135.959 51.6086 135.236 52.6878 133.319 52.575C132.46 52.5245 133.251 47.0229 135.379 49.0333C137.617 51.147 135.541 51.6547 133.641 50.5144" stroke="black" stroke-width="3" stroke-linecap="round"/>
<path d="M83.7991 34.287C88.1885 33.7217 93.1471 33.8335 96.9356 31.3893C99.8725 29.4945 102.892 27.6948 105.693 25.5937C106.95 24.6512 108.072 20.1132 107.303 18.7679C106.43 17.2406 101.668 18.0402 100.22 18.0595C95.2921 18.1252 88.607 19.451 85.087 22.8891C83.0536 24.8752 73.6726 31.7554 81.4809 33.7075" stroke="black" stroke-width="3" stroke-linecap="round"/>
<path d="M94.687 15.2411C88.2627 9.23133 79.1718 2.96182 70.0528 2.05895C66.414 1.69867 61.8651 3.07694 58.4361 3.8303C50.7545 5.51792 47.5953 7.53376 43.8533 14.4996C36.547 28.1006 32.3008 43.4181 26.8813 57.8359C22.5914 69.2488 15.4358 79.0719 9.53854 89.6378C8.23207 91.9786 7.36699 94.0299 4.96598 95.3638C3.7426 96.0435 2.59203 97.1045 2 98.2886" stroke="black" stroke-width="3" stroke-linecap="round"/>
<path d="M2 100.513C8.02554 100.513 16.1955 102.625 21.938 100.472C29.8341 97.5108 33.3304 92.4017 37.7566 85.436C45.9527 72.5371 52.2376 58.8346 60.0014 45.6836C62.9605 40.6712 66.4926 36.6338 71.2063 33.1605C73.9473 31.1408 77.7964 27.105 81.34 27.105" stroke="black" stroke-width="3" stroke-linecap="round"/>
<path d="M103.208 58.2263C103.025 56.7587 101.435 59.6247 101.371 60.2899C101.274 61.3149 101.148 61.3621 101.573 62.1269C102.081 63.0426 100.144 65.7661 99.6852 66.5309C98.7163 68.1456 96.8566 68.5824 96.1872 70.4567C95.6291 72.0193 93.9542 72.4632 92.7899 73.6275" stroke="#5A47FF" stroke-width="3" stroke-linecap="round"/>
<path d="M138.088 54.1495C139.11 54.1495 141.914 53.5256 142.139 55.1058C142.647 58.6581 140.14 61.0617 145.008 61.4224C147.789 61.6284 146.628 65.9406 146.694 67.7389C146.788 70.2833 150.318 69.4609 150.318 71.3627" stroke="#5A47FF" stroke-width="3" stroke-linecap="round"/>
<path d="M115.917 81.3198H134.681" stroke="black" stroke-width="3" stroke-linecap="round"/>
<path d="M116.625 80.6117C116.625 77.0588 117.215 74.1981 120.991 72.98C123.42 72.1964 126.07 72.4686 128.584 72.4686C130.949 72.4686 132.281 74.333 134.327 74.9469C135.912 75.4223 135.914 79.6036 136.097 80.6117" stroke="black" stroke-width="3" stroke-linecap="round"/>
<path d="M30.1202 133.697C31.4156 135.581 32.4574 136.739 34.1019 134.589C36.2745 131.748 38.2344 128.485 39.1291 124.996C39.6513 122.959 38.504 129.166 38.468 131.268C38.4373 133.067 38.2472 138.125 41.2045 135.496C43.6983 133.279 44.7217 129.244 45.7704 126.195C46.0054 125.512 46.1744 124.645 46.5545 124.012C46.9931 123.281 46.7236 125.711 46.7236 126.564C46.7236 129.083 46.6939 131.612 46.8466 134.128C46.9184 135.311 46.8007 138.343 48.2302 139.047C49.4949 139.67 50.8074 137.893 51.7046 137.295" stroke="black" stroke-width="3" stroke-linecap="round"/>
<path d="M55.302 122.352C55.1653 127.343 55.0253 132.332 55.0253 137.325C55.0253 140.083 54.7552 131.779 55.179 129.054C55.4501 127.312 56.4506 131.494 56.6856 131.883C57.6567 133.493 61.2414 129.387 61.7435 128.885C63.1653 127.464 64.2074 126.285 64.5569 124.289C64.8563 122.578 64.4156 121.926 64.1572 124.166C64.0445 125.142 63.0459 136.191 64.7106 135.081" stroke="black" stroke-width="3" stroke-linecap="round"/>
<path d="M67.7546 130.93C71.1485 129.799 76.407 130.53 77.9933 126.625C78.6567 124.993 79.7146 122.328 77.9626 121.014C76.3094 119.774 73.6576 119.974 71.9977 121.06C68.9608 123.047 67.7836 126.659 67.5547 130.131C67.4418 131.843 67.5803 134.397 69.4764 135.173C71.0025 135.797 73.4636 135.358 75.0724 135.358C77.2538 135.358 79.4238 135.352 81.5907 135.081" stroke="black" stroke-width="3" stroke-linecap="round"/>
<path d="M97.9174 124.842C97.5021 127.195 97.9032 130.115 98.4401 132.406C99.1926 135.617 101.306 135.532 103.867 134.159C106.325 132.84 109.207 130.596 109.893 127.732C110.635 124.638 108.806 121.572 106.065 120.292C105.203 119.889 96.9324 117.761 97.2102 116.233C97.4379 114.981 100.79 114.298 101.561 114.081C106.074 112.809 110.187 113.064 114.798 113.22" stroke="black" stroke-width="3" stroke-linecap="round"/>
<path d="M118.118 121.798C118.095 123.187 118.06 123.079 118.333 124.934C118.697 127.397 118.861 132.37 121.147 134.051C122.458 135.015 124.269 133.789 125.236 133.19C127.511 131.78 128.962 130.109 128.849 127.302C128.81 126.337 128.085 123.243 127.65 122.321C126.616 120.132 124.705 119.971 122.53 120C121.321 120.015 119.691 120.075 118.549 120.676C117.174 121.399 117.949 122.334 117.841 123.459" stroke="black" stroke-width="3" stroke-linecap="round"/>
<path d="M133.615 119.861C133.397 124.66 133.067 129.455 132.785 134.251" stroke="black" stroke-width="3" stroke-linecap="round"/>
<path d="M136.382 117.094C139.443 121.496 141.991 125.206 142.178 130.622C142.216 131.738 142.193 132.857 142.193 133.974" stroke="black" stroke-width="3" stroke-linecap="round"/>
<path d="M147.174 117.371C147.099 120.951 146.724 124.612 147.605 128.132C147.989 129.671 148.281 130.861 148.281 132.452C148.281 133.041 148.281 134.809 148.281 134.22C148.281 131.44 148.176 129.006 149.603 126.564C150.329 125.323 152.258 124.143 153.8 124.658C154.701 124.958 155.542 126.632 156.06 127.363C156.689 128.252 156.542 128.952 156.291 129.977C155.602 132.787 154.121 132.45 151.632 133.298C149.525 134.015 149.248 131.989 148.281 130.377" stroke="black" stroke-width="3" stroke-linecap="round"/>
<path d="M161.287 116.264C161.229 120.257 160.839 124.234 160.749 128.224C160.719 129.572 160.734 130.92 160.734 132.267C160.734 132.297 160.826 134.163 160.441 133.267C159.63 131.374 159.844 128.88 159.903 126.871C159.966 124.772 162.4 127.87 163.224 128.378C165.044 129.5 165.97 128.766 166.729 126.918C168.108 123.56 168.936 120.012 169.988 116.556C170.14 116.058 170.137 117.588 170.142 118.108C170.166 120.781 170.129 123.472 170.419 126.133C170.519 127.055 170.595 128.892 171.249 129.546" stroke="black" stroke-width="3" stroke-linecap="round"/>
<path d="M177.614 118.201C177.363 121.619 177.039 125.213 177.521 128.624C177.772 130.395 178.392 131.642 180.104 132.252C181.472 132.739 183.186 132.668 184.562 132.252C185.808 131.876 186.379 130.177 186.869 129.101C188.603 125.285 187.635 121.522 183.594 119.538C181.594 118.557 180.667 118.748 178.997 119.861" stroke="black" stroke-width="3" stroke-linecap="round"/>
<path d="M194.77 103.534C194.133 110.384 193.965 117.5 192.833 124.289" stroke="black" stroke-width="3" stroke-linecap="round"/>
<path d="M193.94 132.867C193.07 132.497 192.095 132.097 192.726 130.976C192.904 130.66 193.991 130.394 194.156 130.838C194.408 131.52 194.064 132.84 193.187 132.913C192.911 132.936 194.635 131.383 195.047 131.207" stroke="black" stroke-width="3" stroke-linecap="round"/>
<path d="M346.194 92.7776C329.692 93.0036 312.524 94.9375 296.392 90.5882C283.401 87.0858 271.242 81.6984 264.432 69.6254C258.495 59.1007 260.84 44.4903 266.672 34.3434C270.443 27.7814 273.886 24.3502 281.016 21.4336C294.06 16.0974 308.218 11.3397 322.262 9.73164C331.443 8.68039 341.539 8.14518 350.724 9.27866C360.067 10.4317 368.289 15.8067 375.537 21.4587C386.187 29.7633 392.107 47.2814 387.592 60.2387C385.933 64.9973 384.2 68.6615 381.325 72.7962C377.822 77.8344 373.208 79.8783 367.887 82.6108C365.037 84.0741 362.134 84.4958 359.155 85.5551C356.291 86.5732 353.554 87.766 350.674 88.726C345.085 90.5889 339.668 91.6368 333.964 92.7776" stroke="black" stroke-width="3" stroke-linecap="round"/>
<path d="M285.174 41.1822C285.13 42.5896 284.661 42.7876 284.82 41.4576C284.987 40.0719 287.625 40.9819 287.967 41.7526C288.362 42.6411 287.974 43.3065 287.122 43.3065C286.599 43.3065 286.187 42.2197 286.945 42.5984" stroke="black" stroke-width="3" stroke-linecap="round"/>
<path d="M325.182 35.8715C323.973 37.5778 322.683 35.4064 322.979 35.0257C324.136 33.5374 324.191 37.145 324.1 37.6024C324.039 37.9062 323.625 37.7434 323.49 37.5631C323.172 37.1384 323.668 36.3602 323.333 35.9502C322.97 35.5073 322.03 35.8715 323.765 35.8715" stroke="black" stroke-width="3" stroke-linecap="round"/>
<path d="M306.771 54.2821C304.537 54.2821 302.279 54.368 300.044 54.2821C298.821 54.235 295.169 51.9515 294.203 53.2396C293.266 54.4881 292.66 56.2729 294.419 56.9571C295.917 57.5398 297.474 58.157 298.982 58.6093C299.737 58.8357 296.332 59.5364 295.658 59.9468C294.896 60.4106 293.761 60.8505 293.396 61.717C292.573 63.6711 296.404 64.1954 297.763 64.1954C299.584 64.1954 302.407 64.786 304.096 64.0184C305.147 63.5408 306.276 63.1193 307.401 62.8579C308.298 62.6492 308.296 61.9554 309.25 61.717" stroke="black" stroke-width="3" stroke-linecap="round"/>
<path d="M280.218 29.1448C279.782 30.1256 276.821 30.393 275.812 31.0724C274.68 31.8341 273.51 32.5824 272.429 33.3933" stroke="black" stroke-width="3" stroke-linecap="round"/>
<path d="M321.995 21.3557C324.211 21.3557 328.934 21.4253 330.138 23.834" stroke="black" stroke-width="3" stroke-linecap="round"/>
<path d="M252.466 19.9885C252.572 18.1846 254.445 16.1439 255.787 15.0536C257.764 13.4468 259.488 14.7629 260.583 16.4833C261.265 17.555 261.342 19.7415 260.645 20.8801C259.61 22.5686 259.929 24.4335 259.107 26.0764" stroke="black" stroke-width="3" stroke-linecap="round"/>
<path d="M252.743 19.4351C250.39 19.7653 248.013 19.619 245.655 19.8809C243.635 20.1054 243.277 22.0319 243.549 23.8626C243.856 25.923 246.716 25.9765 248.161 26.6299C251.852 28.2982 255.99 27.7368 259.937 27.7368" stroke="black" stroke-width="3" stroke-linecap="round"/>
<path d="M233.649 118.225C233.528 120.419 232.068 125.776 235.371 126.189C239.012 126.644 241.689 123.727 243.749 121.023C244.726 119.741 246.535 115.234 245.625 116.565C243.997 118.944 242.976 124.857 244.779 127.357C247.688 131.39 254.956 120.523 254.956 117.61C254.956 115.74 253.732 121.169 253.481 123.022C253.056 126.148 254.489 127.056 257.539 126.742C260.136 126.474 261.339 124.015 261.751 121.7C261.97 120.473 262.035 112.389 258.738 114.412C255.473 116.416 253.39 122.271 253.588 125.943C253.634 126.791 254.386 126.367 254.972 126.189C256.885 125.605 258.965 124.694 261.014 124.989C264.003 125.42 263.401 130.048 263.473 132.123C263.588 135.411 264.113 141.042 260.798 143.161C258.505 144.627 252.61 144.036 253.988 140.178C255.109 137.04 257.807 134.316 259.937 131.846C261.636 129.877 262.964 128.538 265.195 127.357" stroke="black" stroke-width="3" stroke-linecap="round"/>
<path d="M269.069 114.074C268.885 115.384 265.478 130.372 270.453 127.665C272.249 126.687 273.741 124.293 275.034 122.76C276.464 121.065 277.15 119.033 277.187 116.811C277.188 116.738 276.943 114.86 276.879 115.028C276.134 116.965 276.221 119.705 276.018 121.73C275.807 123.842 275.651 125.971 275.711 128.095C275.738 129.056 276.423 128.632 277.094 128.464" stroke="black" stroke-width="3" stroke-linecap="round"/>
<path d="M289.27 119.609C293.797 119.609 298.312 119.584 302.829 119.886" stroke="black" stroke-width="3" stroke-linecap="round"/>
<path d="M308.364 114.074C308.418 117.606 308.641 121.135 308.641 124.667C308.641 125.49 308.643 126.221 308.856 127.019C308.927 127.285 308.86 128.861 308.948 127.895C309.281 124.234 310.03 121.582 312.254 118.671C313.816 116.625 315.865 115.916 318.357 115.581C320.795 115.254 320.859 115.461 320.817 117.979C320.789 119.619 320.614 121.207 320.248 122.807C319.964 124.046 319.413 125.323 319.479 126.619C319.563 128.263 321.091 128.413 322.277 127.665C325.258 125.786 327.359 122.753 328.319 119.394C329.228 116.213 327.83 119.922 327.642 121.023C327.212 123.555 327.445 126.305 330.225 127.296C331.691 127.818 332.751 127.569 333.546 126.189C334.709 124.168 335.076 121.814 335.329 119.532C335.536 117.672 335.688 116.669 333.607 116.58C332.526 116.534 330.075 116.071 329.272 117.026C328.296 118.186 328.019 119.246 329.118 120.162" stroke="black" stroke-width="3" stroke-linecap="round"/>
<path d="M339.08 114.628C338.451 117.532 337.327 121.196 339.403 123.821C340.531 125.247 342.563 125.845 344.092 124.743C346.192 123.231 347.312 120.708 348.151 118.348C348.397 117.654 348.766 115.49 348.766 116.227C348.766 117.733 348.434 119.238 348.397 120.746C348.326 123.604 349.509 126.182 350.826 128.664C351.784 130.471 352.779 131.218 350.334 131.354C349.343 131.409 345.166 131.333 344.707 130.063C344.257 128.817 349.472 125.7 350.426 125.143" stroke="black" stroke-width="3" stroke-linecap="round"/>
<path d="M352.086 121.546C355.651 121.452 360.746 121.002 362.709 117.503C363.888 115.401 363.488 111.331 360.111 112.322C358.827 112.699 356.752 113.782 355.807 114.751C354.663 115.923 355.13 118.954 355.13 120.378C355.13 124.796 358.283 125.723 362.048 125.143" stroke="black" stroke-width="3" stroke-linecap="round"/>
<path d="M366.476 122.929C367.047 123.217 369.39 124.507 370.227 124.559C372.335 124.689 373.125 121.313 373.594 119.993C374.531 117.353 375.054 114.937 375.054 112.168C375.054 108.316 376.075 119.876 377.468 123.467C378.117 125.141 378.779 124.116 379.513 122.96C380.982 120.644 382.228 118.103 383.264 115.565C383.72 114.448 383.758 114.23 384.017 113.213C384.121 112.807 384.202 111.645 384.401 112.014C384.626 112.432 384.373 113.948 384.494 114.366C385.097 116.457 386.683 118.931 388.706 119.916C392.027 121.533 393.077 114.938 393.595 112.937C393.887 111.806 393.825 111.619 393.933 113.029C394.448 119.772 395.375 126.386 395.516 133.168C395.573 135.892 395.753 139.048 394.517 141.562C393.889 142.839 392.581 144.928 391.073 145.282C389.134 145.739 381.087 141.692 382.403 139.871C386.106 134.747 391.731 130.737 397.469 128.187" stroke="black" stroke-width="3" stroke-linecap="round"/>
<path d="M400.513 110.2C400.513 113.69 400.513 117.18 400.513 120.67C400.513 122.845 400.297 125.225 400.774 127.372C400.982 128.308 400.795 125.456 400.789 124.498C400.781 123.068 400.772 121.633 400.636 120.208C400.623 120.079 400.291 118.818 400.359 118.563C400.369 118.525 403.052 119.288 403.126 119.301C405.121 119.669 408.188 120.104 409.045 117.749C409.33 116.965 409.878 115.374 409.629 114.505C409.466 113.933 409.367 115.679 409.399 116.273C409.572 119.531 410.302 122.344 413.918 122.868C417.206 123.344 419.18 117.105 419.945 114.72C421.18 110.868 418.499 111.115 415.394 110.754C413.909 110.581 412.28 110.24 411.643 111.922C411.467 112.386 411.078 113.269 411.582 113.521" stroke="black" stroke-width="3" stroke-linecap="round"/>
<path d="M427.147 99.6001C427.885 104.672 428.594 109.745 429.272 114.824" stroke="black" stroke-width="3" stroke-linecap="round"/>
<path d="M429.272 122.259C429.272 121.655 429.112 119.895 429.35 120.449C429.851 121.618 430.421 123.729 428.917 124.029" stroke="black" stroke-width="3" stroke-linecap="round"/>
<path d="M99.0814 38.1094C97.8732 38.9458 96.9478 39.932 96.0534 41.0893C95.1936 42.202 94.3019 42.4457 93.0254 43.084" stroke="black" stroke-width="3" stroke-linecap="round"/>
<path d="M139.96 34.2163C140.699 34.4012 141.705 36.5718 142.339 37.1001C143.314 37.9125 144.176 38.0529 144.934 39.1909" stroke="black" stroke-width="3" stroke-linecap="round"/>
</svg>
