<svg width="135" height="141" viewBox="0 0 135 141" fill="none" xmlns="http://www.w3.org/2000/svg">
<path d="M130.221 16C118.634 26.9609 103.05 36.7204 87.6014 41.1922C83.2399 42.4548 61.3045 43.8302 62.2367 48.9569C63.7801 57.4455 70.9186 66.594 75.0053 74.0629C79.6307 82.5162 83.9869 91.3956 90.9661 98.2198C102.559 109.555 119.577 116.456 133.327 124.706" stroke="black" stroke-width="3" stroke-linecap="round"/>
<path d="M91.3975 2C73.1363 2 54.7947 13.4607 37.3896 18.3922C29.6888 20.5741 21.9356 20.6353 14.0091 20.6353C10.6114 20.6353 -3.07136 18.3516 4.00126 21.7569C15.742 27.4098 16.2076 35.758 20.3072 46.6903C25.4178 60.3187 31.0868 74.2003 38.0798 86.9806C42.6579 95.3475 47.7894 103.425 52.1425 111.914C55.6679 118.788 56.7571 125.965 59.6484 132.965C61.8016 138.178 69.4592 138.659 74.3151 138.659" stroke="black" stroke-width="3" stroke-linecap="round"/>
</svg>
