<svg width="444" height="175" viewBox="0 0 444 175" fill="none" xmlns="http://www.w3.org/2000/svg">
<path d="M89.5638 129.498C78.5232 129.743 66.7527 129.385 56.265 125.481C49.7657 123.062 43.6852 118.421 38.1071 114.436C34.4093 111.794 31.1377 109.046 28.7767 105.147C24.0911 97.4097 21.9711 88.0002 21.1783 79.0951C20.622 72.8459 21.424 67.7202 22.7986 61.6061C23.9076 56.6734 26.7943 53.2455 30.3411 49.7795C33.5324 46.6607 38.3491 44.2691 42.4929 42.8899C47.8425 41.1094 53.2207 39.1146 58.8909 38.6222C66.9394 37.9234 74.9993 38.1202 83.0829 38.1202C88.4651 38.1202 93.8473 38.1202 99.2295 38.1202C102.67 38.1202 106.426 37.7015 109.817 38.427C117.518 40.0746 126.432 40.7602 132.919 45.6513C135.438 47.55 138.063 49.3241 140.602 51.202C144.14 53.8191 145.602 57.0593 147.39 60.9925C149.203 64.9797 151.556 68.6357 152.418 72.9865C153.294 77.4086 152.921 82.0601 152.921 86.5426C152.921 94.4208 148.867 103.232 145.323 110.112C141.652 117.238 133.745 122.52 126.271 124.868C119.974 126.846 113.486 129.498 106.828 129.498C98.2681 129.498 89.6264 130 81.0157 130" stroke="black" stroke-width="3" stroke-linecap="round"/>
<path d="M295.68 113.316C281.019 122.775 259.332 123.697 242.613 119.94C233.821 117.965 223.399 116.657 215.772 111.542C211.513 108.686 209.663 101.382 208.362 96.7959C206.544 90.3857 204.171 84.0352 204.084 77.2825C204.047 74.3801 203.804 71.2696 204.364 68.4127C205.08 64.7608 206.611 61.8054 207.859 58.3788C212.624 45.2962 225.495 37.1391 238.083 32.0191C244.419 29.4423 251.92 28 258.717 28C264.902 28 270.744 30.0176 276.863 30.4669C283.034 30.92 288.294 33.3951 293.918 35.7333C296.823 36.9409 299.478 38.5734 302.222 40.085C304.594 41.3912 305.518 43.6527 307.143 45.5732C310.6 49.6595 312.844 55.5882 314.077 60.6517C315.351 65.8837 317.737 70.2629 317.824 75.7857C317.913 81.4626 318.686 87.7126 316.09 92.8599C315.181 94.662 314.399 96.5332 313.294 98.2372C312.155 99.9936 310.706 100.637 309.268 102.062C306.635 104.672 303.651 108.502 299.986 109.823C299.159 110.121 297.383 111.26 296.686 111.819C295.921 112.433 294.536 112.591 294.17 113.316" stroke="black" stroke-width="3" stroke-linecap="round"/>
<path d="M304.282 45C297.601 43.5373 292.96 36.1445 289.968 30.4776C289.101 28.835 288.111 26.7506 290.453 25.6561C296.783 22.6977 304.451 21.3363 309.814 26.2912C312.161 28.4606 313.484 30.8921 314.946 33.6824C315.83 35.3693 318.382 40.6572 316.03 42.1128C312.281 44.4324 307.245 41.3622 303.256 41.3622" stroke="black" stroke-width="3" stroke-linecap="round"/>
<path d="M304 21.1562C307.667 19.8399 310.269 16.0976 314.047 14.6116C316.971 13.4616 319.867 12.5914 322.971 12.1292C328.167 11.3555 334.516 14.2282 339.249 16.1913C352.461 21.6725 357.709 36.3906 361.7 49.1962C364.012 56.6145 363.097 64.8987 364.226 72.5536C365.217 79.2828 369.026 87.9605 373.824 92.8643C381.356 100.564 391.543 106.372 402 109" stroke="black" stroke-width="3" stroke-linecap="round"/>
<path d="M316 36C319.401 37.8195 323.032 39.6736 325.47 42.7347C330.805 49.4315 332.216 57.8924 333.76 66.1656C334.999 72.8085 334.303 80.1281 334.097 86.8467C333.827 95.6299 332.805 104.295 332.411 113.056C332.252 116.596 332.714 119.822 333.479 123.27C333.882 125.088 334.188 128.234 335.53 129.78C338.347 133.026 341.75 133.474 346.068 133.905C350.035 134.301 354.26 133.405 358.011 132.193C363.808 130.32 369.493 127.74 375.18 125.515C380.157 123.567 383.703 119.913 388.331 117.602C393.657 114.943 397.741 110.35 403 107.724" stroke="black" stroke-width="3" stroke-linecap="round"/>
<path d="M227.207 67.5718C227.207 64.744 231.35 68.543 229.544 69.7768C227.957 70.8613 225.856 67.6982 226.959 66.6214C229.164 64.4693 230.515 68.5983 227.844 68.5983C227.194 68.5983 225.498 67.6412 226.145 67.5718C226.655 67.517 228.662 67.2296 228.482 67.2296" stroke="black" stroke-width="3" stroke-linecap="round"/>
<path d="M249.502 66.7966C249.076 66.8746 247 67.4839 247 66.6763C247 65.8927 247.702 66.0662 248.251 65.5932C249.287 64.7019 249.902 65.8258 249.988 66.7431C250.108 68.0129 249.275 67.7966 248.223 67.3582C246.32 66.565 246.877 64.7378 249.015 65.0317C249.661 65.1204 249.752 66.2811 249.752 66.7431C249.752 67.9027 248.61 68 247.5 68" stroke="black" stroke-width="3" stroke-linecap="round"/>
<path d="M107.307 73.0335C107.215 72.172 106.824 71.3774 108.165 71.0926C109.826 70.7398 110.039 71.3818 109.995 73.2516C109.937 75.6979 106 75.2081 106 74.0149C106 72.9777 108.132 72.9999 108.651 73.0335C109.505 73.089 107.849 74.3659 107.661 73.6005C107.46 72.7758 107.451 71.1129 108.389 71.0708C109.901 71.0028 109.323 73.7177 109.323 74.9963" stroke="black" stroke-width="3" stroke-linecap="round"/>
<path d="M128.751 73C127.675 72.9041 127.476 69.9382 130.054 71.4081C130.573 71.7043 131.379 72.2228 130.798 72.7199C130.242 73.1958 129.554 72.7347 128.751 72.7347" stroke="black" stroke-width="3" stroke-linecap="round"/>
<path d="M112 97.575C112 103.212 117.176 102.96 121.292 102.96C123.524 102.96 126.617 103.299 128.607 101.999C129.926 101.137 130.645 96.266 129.217 95.4594C126.575 93.9675 122.833 93.2045 119.862 92.2753C117.833 91.6407 117.096 92.0946 115.574 93.7284C114.778 94.5823 112.997 96.215 112.757 97.1903" stroke="black" stroke-width="3" stroke-linecap="round"/>
<path d="M10 160.162C13.5803 160.703 17.2115 160.897 20.8181 161.146C23.8341 161.354 24.9767 159.287 25.7551 156.779C26.3481 154.869 26.6156 153.283 25.0667 151.823C24.107 150.918 20.7061 149.541 19.4019 149.541C17.8563 149.541 18.7345 153.535 19.2249 154.301C20.4254 156.177 22.1874 157.753 24.5159 157.684C25.0012 157.67 25.7733 157.182 26.2075 157.487C27.1482 158.149 27.7653 160.08 28.4105 161.048C29.3691 162.486 30.1426 163.703 31.9509 163.703" stroke="black" stroke-width="3" stroke-linecap="round"/>
<path d="M47.175 151.79C48.284 156.78 47.8194 162.072 48.5912 167.132C48.8753 168.994 49.3447 170.827 49.6533 172.678" stroke="black" stroke-width="3" stroke-linecap="round"/>
<path d="M48.2371 161.1C48.2371 158.031 50.6541 150.727 54.964 152.643C57.3175 153.689 58.4386 159.108 57.3637 161.258C55.8536 164.278 50.8149 166.132 47.8831 163.933" stroke="black" stroke-width="3" stroke-linecap="round"/>
<path d="M60.2747 156.976C61.0603 158.744 67.0731 158.038 68.5358 158.038C70.3992 158.038 71.0249 157.967 72.509 156.701C73.557 155.807 73.6914 153.149 72.509 152.295C71.005 151.209 67.8548 151.426 66.2148 152.019C64.772 152.541 63.3709 153.234 62.6744 154.655C61.6708 156.702 60.5261 160.607 61.7696 162.759C62.6357 164.258 65.1075 165.351 66.6476 165.827C68.4936 166.398 70.3938 166.535 72.3123 166.535" stroke="black" stroke-width="3" stroke-linecap="round"/>
<path d="M75.8528 158.746C79.2841 158.276 82.5126 157.611 85.7661 156.484C87.8303 155.77 89.3514 155.78 90.2114 153.318C90.8235 151.565 91.9404 149.725 91.3719 147.83C90.3849 144.54 84.79 146.326 82.8157 147.397C79.2028 149.357 78.2183 154.071 78.3705 157.959C78.4631 160.328 78.5542 163.421 80.5341 165.08C82.4198 166.659 84.2355 167.438 86.4742 166.319C88.746 165.183 89.1297 163.494 89.3656 161.028C89.6488 158.067 89.7261 155.964 86.3955 156.661C82.6416 157.447 80.1889 158.681 77.269 160.871" stroke="black" stroke-width="3" stroke-linecap="round"/>
<path d="M97.0956 153.082C97.5092 157.424 97.6211 161.802 98.1971 166.122C98.2365 166.418 99.007 167.474 98.8462 167.715C98.7818 167.812 98.0304 166.406 98.0004 166.299C97.2692 163.688 97.6162 160.026 99.0232 157.723C100.18 155.831 102.399 158.221 103.488 159.081C108.555 163.081 108.478 156.356 108.425 152.727C108.42 152.361 107.922 150.351 108.228 151.193C108.958 153.198 109.212 155.22 109.487 157.33C109.698 158.946 110.078 162.878 111.258 164.057" stroke="black" stroke-width="3" stroke-linecap="round"/>
<path d="M112.674 149.541C113.688 153.068 114.869 158.121 118.417 160.28C119.353 160.85 120.954 161.133 121.879 160.516" stroke="black" stroke-width="3" stroke-linecap="round"/>
<path d="M124.711 149.541C124.633 155.046 124.541 161.249 122.41 166.437C121.711 168.138 120.686 169.759 120.109 171.492" stroke="black" stroke-width="3" stroke-linecap="round"/>
<path d="M129.314 150.249C129.42 155.323 131.084 159.948 131.084 165.041C131.084 167.545 130.416 159.935 131.104 157.527C131.342 156.693 132.9 158.921 133.051 159.041C133.879 159.704 135.17 160.016 136.218 159.769C137.564 159.453 138.558 157.896 139.208 156.799C140.221 155.089 140 154.438 140.919 156.897C141.239 157.756 144.045 162.541 145.6 161.067C147.849 158.937 149.026 154.592 147.331 151.862C145.567 149.02 138.54 147.332 137.457 151.665" stroke="black" stroke-width="3" stroke-linecap="round"/>
<path d="M241.1 92C239.242 92 237.78 91.968 236.081 91.0732C233.421 89.6726 233.667 89.0996 234.847 86.5939C235.314 85.6025 235.728 83.4518 237.078 83.3502C238.783 83.222 240.403 82.8033 242.148 83.1099C243.52 83.3512 244.775 84.0694 246.001 84.6031C248.233 85.5748 248.725 87.3121 248.992 89.6144C249.166 91.1163 246.56 91.0732 245.595 91.0732C243.904 91.0732 242.416 92 240.796 92" stroke="black" stroke-width="3" stroke-linecap="round"/>
<path d="M246 51H252" stroke="black" stroke-width="3" stroke-linecap="round"/>
<path d="M229 52C227.342 52 226.504 52.5403 225 53" stroke="black" stroke-width="3" stroke-linecap="round"/>
<path d="M109 56.0081C107.417 56.0081 105.166 55.8436 104 57" stroke="black" stroke-width="3" stroke-linecap="round"/>
<path d="M126 55C128.475 55.0379 130.539 56 133 56" stroke="black" stroke-width="3" stroke-linecap="round"/>
<path d="M195.793 153.432C198.69 155.715 202.351 159.1 205.77 155.861C207.451 154.269 208.286 152.4 208.461 150.111C208.578 148.57 208.553 145.488 206.985 144.592C205.702 143.859 203.876 143.96 202.465 144.039C199.168 144.222 196.873 147.599 195.516 150.388C193.437 154.662 198 157.859 201.988 157.859C203.14 157.859 203.91 156.346 204.433 155.523C205.336 154.099 205.676 152.518 206.216 150.941C206.793 149.254 207.968 147.791 208.476 146.114C208.563 145.825 208.584 144.722 208.922 144.577C208.997 144.544 209.12 147.235 209.137 147.405C209.695 153.127 211.857 158.82 213.042 164.439C213.303 165.679 214.322 170.057 213.334 171.265C212.336 172.485 208.422 171.601 207.2 171.265C201.908 169.81 208.227 163.135 210.182 161.18" stroke="black" stroke-width="3" stroke-linecap="round"/>
<path d="M222.358 147.621C220.817 146.864 219.179 145.913 217.485 145.545C215.704 145.158 214.982 147.352 214.456 148.666C213.492 151.076 214.687 156.927 218.3 155.461C220.919 154.398 223.115 151.138 223.434 148.343C223.495 147.815 223.465 147.275 223.465 146.744C223.465 145.786 223.465 148.661 223.465 149.619C223.465 150.794 222.995 154.81 224.71 155.338C225.155 155.475 225.765 155.369 226.232 155.369" stroke="black" stroke-width="3" stroke-linecap="round"/>
<path d="M227.893 151.218C231.857 149.469 237.085 148.148 237.978 143.224C238.317 141.353 238.105 138.758 236.317 137.566C234.708 136.493 233.128 139.229 232.489 140.087C231.015 142.069 230.042 143.819 229.707 146.298C229.395 148.605 228.875 151.969 229.907 154.185C230.655 155.793 233.008 156.992 234.595 157.521C236.465 158.144 237.274 156.807 238.239 155.446C239.113 154.212 240.905 151.888 240.56 150.142C240.253 148.584 234.626 149.281 233.366 149.281C232.32 149.281 231.565 149.332 231.213 150.388" stroke="black" stroke-width="3" stroke-linecap="round"/>
<path d="M258.886 149.004C255.939 149.004 254.964 147.851 252.798 146.083C251.625 145.126 249.184 142.85 247.694 144.3C245.583 146.353 244.418 149.15 244.834 152.14C245.016 153.447 246.672 155.4 248.155 155.369C251.06 155.307 254.393 151.579 255.503 149.219C256.251 147.631 256.678 145.813 257.102 144.115C257.349 143.13 257.225 143.417 257.225 144.331C257.225 147.165 256.336 151.732 258.117 154.2C258.559 154.813 260.636 155.741 261.099 154.815" stroke="black" stroke-width="3" stroke-linecap="round"/>
<path d="M263.59 143.746C263.949 146.429 263.919 149.556 264.728 152.156C265.096 153.341 265.631 154.26 266.911 154.477C269.483 154.914 271.36 153.844 272.445 151.433C272.922 150.374 273.35 148.915 273.521 147.759C273.737 146.3 273.471 146.933 273.675 148.143C274.078 150.535 274.684 154.547 277.149 155.369" stroke="black" stroke-width="3" stroke-linecap="round"/>
<path d="M267.741 137.105C268.254 134.538 273.87 135.168 275.766 135.168" stroke="black" stroke-width="3" stroke-linecap="round"/>
<path d="M293.859 149.541C294.124 152.12 296.702 157.897 299.799 158.038C302.632 158.167 304.532 152.204 304.422 149.895C304.248 146.253 299.578 144.254 296.357 144.997C294.196 145.496 294.213 148.97 294.213 150.603" stroke="black" stroke-width="3" stroke-linecap="round"/>
<path d="M306.605 145.646C306.406 148.178 304.914 156.622 309.477 156.622C312.692 156.622 315.105 155.563 314.197 151.744C313.186 147.488 311.014 145.877 307.667 143.483C305.797 142.145 304.676 139.182 302.278 138.9C301.534 138.812 303.673 138.34 304.402 138.172C307.24 137.518 310.118 136.875 313.017 136.559C315.23 136.318 317.529 136.631 319.705 136.087" stroke="black" stroke-width="3" stroke-linecap="round"/>
<path d="M323.599 148.125C323.599 146.191 322.799 144.432 320.924 143.896C319.335 143.442 318.446 148.15 318.446 149.187C318.446 151.432 321.225 153.742 322.537 155.383C323.879 157.06 328.499 153.62 329.264 152.727" stroke="black" stroke-width="3" stroke-linecap="round"/>
<path d="M329.264 143.522C330.447 146.057 331.107 149.911 333.985 150.957C334.454 151.128 334.607 151.601 334.929 150.957" stroke="black" stroke-width="3" stroke-linecap="round"/>
<path d="M339.531 144.23C337.907 147.722 336.636 152.173 334.28 155.265C333.738 155.976 333.337 156.657 332.981 157.488C332.519 158.568 331.487 160.484 330.326 160.871" stroke="black" stroke-width="3" stroke-linecap="round"/>
<path d="M340.948 149.541C342.424 152.053 344.273 156.824 348.029 155.363C350.654 154.342 350.861 150.759 350.861 148.4C350.861 145.418 350.405 143.505 347.32 142.637C345.65 142.167 344.427 141.823 343.092 143.247C341.558 144.883 340.463 148.053 340.279 150.269C340.113 152.258 340.185 154.066 342.521 154.144C345.357 154.238 348.443 154.185 350.625 152.098C351.238 151.511 351.228 150.452 351.766 151.724C352.499 153.458 352.631 154.855 352.631 156.72C352.631 158.976 353.059 165.675 349.287 165.473C341.473 165.055 347.877 158.105 350.507 155.914" stroke="black" stroke-width="3" stroke-linecap="round"/>
<path d="M356.172 144.584C356.702 147.834 356.847 150.979 356.88 154.262C356.885 154.8 356.701 156.538 357.588 156.622C359.938 156.846 361.748 155.512 362.977 153.711C363.832 152.458 364.521 151.161 364.944 149.698C365.066 149.278 365.359 148.565 365.377 149.502C365.444 153.052 366.034 155.763 367.147 159.1" stroke="black" stroke-width="3" stroke-linecap="round"/>
<path d="M372.458 146.709C372.458 149.897 372.61 153.071 374.031 155.914C374.215 156.281 374.683 157.066 374.562 157.487C374.438 157.924 373.434 154.865 373.363 154.517C372.902 152.282 372.745 150.048 372.812 147.771C372.897 144.874 376.56 149.577 377.06 150.092C377.288 150.326 379.21 152.397 379.539 151.823C380.09 150.858 380.877 150.287 381.643 149.521C382.461 148.704 382.422 147.854 382.922 146.925C384.195 144.561 385.232 150.367 385.361 150.76C386.151 153.177 386.62 155.509 386.62 158.038" stroke="black" stroke-width="3" stroke-linecap="round"/>
</svg>
