<svg width="135" height="141" viewBox="0 0 135 141" fill="none" xmlns="http://www.w3.org/2000/svg">
<path d="M4.59815 16C16.1854 26.9609 31.7696 36.7204 47.2178 41.1922C51.5794 42.4548 73.5147 43.8302 72.5826 48.9569C71.0392 57.4455 63.9007 66.594 59.8139 74.0629C55.1885 82.5162 50.8324 91.3956 43.8531 98.2198C32.2601 109.555 15.2422 116.456 1.49226 124.706" stroke="black" stroke-width="3" stroke-linecap="round"/>
<path d="M43.4217 2C61.683 2 80.0245 13.4607 97.4296 18.3922C105.13 20.5741 112.884 20.6353 120.81 20.6353C124.208 20.6353 137.891 18.3516 130.818 21.7569C119.077 27.4098 118.612 35.758 114.512 46.6903C109.401 60.3187 103.732 74.2003 96.7395 86.9806C92.1613 95.3475 87.0299 103.425 82.6767 111.914C79.1513 118.788 78.0622 125.965 75.1708 132.965C73.0176 138.178 65.36 138.659 60.5041 138.659" stroke="black" stroke-width="3" stroke-linecap="round"/>
</svg>
