<svg width="959" height="272" viewBox="0 0 959 272" fill="none" xmlns="http://www.w3.org/2000/svg">
<path d="M606.961 239.606C605.095 236.941 599.657 236.711 596.872 235.099C592.613 232.633 587.757 230.459 583.779 227.586C575.339 221.491 570.652 214.17 565.642 205.264C559.443 194.242 555.769 185.377 555.769 172.853C555.769 162.238 557.95 153.487 562.047 143.716C568.63 128.018 592.307 126.85 606.478 123.701C616.621 121.447 627.842 122.735 638.191 122.735C641.938 122.735 646.093 122.225 649.781 122.896C654.033 123.669 658.355 127.911 662.016 130.033C676.137 138.217 694.452 145.309 703.334 159.975C708.014 167.703 708.043 177.664 706.446 186.268C704.907 194.563 699.942 207.143 693.192 212.615C668.474 232.657 626.862 242.921 599.234 223.186" stroke="black" stroke-width="3" stroke-linecap="round"/>
<path d="M656.22 126.598C658.745 137.204 668.411 143.984 679.401 143.984C690.495 143.984 695.982 134.144 697.539 123.915C700.195 106.458 643.812 118.815 652.357 129.496" stroke="black" stroke-width="3" stroke-linecap="round"/>
<path d="M681 117.092C681 108.427 688.804 97.1303 694.46 91.5881C703.817 82.42 719.408 76.5094 731.833 75.848C748.998 74.9342 765.974 74.0541 783.049 77.2352C796.472 79.7362 807.094 88.5331 818.847 95.9633C831.318 103.848 841.112 112.177 850.254 124.776C855.071 131.416 859.846 138.096 864.668 144.731C868.966 150.644 875.08 154.767 879.847 160.258C889.785 171.704 909.731 190.899 925 179.519" stroke="black" stroke-width="3" stroke-linecap="round"/>
<path d="M700 121C706.932 127.486 714.463 133.286 721.269 139.853C726.009 144.426 732.221 149.353 735.914 155.053C742.205 164.763 746.859 177.47 750.56 188.677C753.397 197.27 754.985 206.172 759.188 214.136C762.675 220.741 765.42 225.644 767.164 233.15C769.948 245.129 778.533 253.211 789.179 254.205C803.642 255.555 816.493 255.604 830.597 250.982C845.818 245.994 857.013 235.063 870.616 226.167C883.526 217.724 895.56 206.7 906.53 195.229C911.295 190.246 915.003 184.58 920.709 180.996C922.654 179.774 924.263 179.62 925 177.075" stroke="black" stroke-width="3" stroke-linecap="round"/>
<path d="M602.131 167.165C601.554 164.858 589.95 164.328 587.428 164.268C584.528 164.199 581.943 163.302 578.95 163.302C575.931 163.302 577.018 166.738 577.018 169.097" stroke="black" stroke-width="3" stroke-linecap="round"/>
<path d="M653.323 160.404C652.353 157.818 635.999 160.404 633.039 160.404C628.213 160.404 623.38 158.563 623.38 164.268" stroke="black" stroke-width="3" stroke-linecap="round"/>
<path d="M608.892 202.903C611.361 201.36 611.848 200.426 614.741 199.522C616.732 198.9 619.016 199.511 620.698 198.288C622.776 196.776 628.25 199.119 629.176 200.971" stroke="black" stroke-width="3" stroke-linecap="round"/>
<path d="M448 45.9473C452.201 51.049 460.632 51.1714 464.42 46.2692C468.714 40.7119 470.469 32.8608 471.932 26.0931C472.522 23.3649 465.505 24.79 464.044 25.2345C460.206 26.4026 456.075 31.2585 459.269 35.3226C462.683 39.6686 473.113 39.3786 473.113 45.9473" stroke="black" stroke-width="3" stroke-linecap="round"/>
<path d="M574.32 14.9369C564.948 14.9369 561.588 17.5529 561.012 27.4933C560.525 35.8975 575.121 35.0148 580.544 34.1471C585.734 33.3168 593.29 17.6648 591.115 22.4493C589.235 26.5857 588.698 30.8499 593.423 32.5373C596.965 33.8024 598.567 33.6003 599.915 29.8543C601.879 24.3988 602.235 18.4286 597.286 14.4003C593.879 11.6272 590.841 15.5978 589.774 18.8004" stroke="black" stroke-width="3" stroke-linecap="round"/>
<path d="M636.903 9.72705C631.697 9.72705 628.961 11.0651 625.849 15.6296C619.074 25.5664 627.492 29.817 636.688 29.5812C641.856 29.4487 645.053 25.5801 647.957 21.7469C649.957 19.1072 652.357 9.52764 652.357 12.8393C652.357 18.628 651.391 24.2487 651.391 30.0105" stroke="black" stroke-width="3" stroke-linecap="round"/>
<path d="M645.596 16.4883C649.393 16.4883 654.983 14.7372 658.152 12.6248" stroke="black" stroke-width="3" stroke-linecap="round"/>
<path d="M657.186 21.3177C662.442 20.5091 667.908 17.3519 672.64 14.9858C679.324 11.6439 671.058 10.354 667.328 10.7467C660.828 11.4309 660.832 19.0905 661.05 24.0007C661.509 34.3376 678.931 26.0627 682.836 24.0007C687.433 21.5731 690.31 17.7931 690.992 12.6784C691.566 8.37459 691.825 7.30266 692.441 12.3565C693.006 16.9893 692.543 21.1239 691.475 25.6105C690.153 31.1629 690.026 23.1225 690.026 21.425C690.026 19.4887 688.882 14.7852 691.207 17.4542C694.326 21.0352 699.312 19.0346 702.368 16.4883C703.842 15.2598 705.51 13.7102 706.231 11.8735C706.442 11.3366 706.446 9.57958 706.446 10.1564C706.446 16.4525 706.446 22.7486 706.446 29.0447" stroke="black" stroke-width="3" stroke-linecap="round"/>
<path d="M718.037 7.79529C716.877 14.1966 714.173 21.5114 714.173 28.0787" stroke="black" stroke-width="3" stroke-linecap="round"/>
<path d="M726.73 12.6248C720.469 15.0844 715.042 19.5259 708.914 22.3909C704.128 24.6287 708.045 20.4462 709.827 18.5273C715.284 12.6505 725.741 22.2835 731.076 22.2835C735.377 22.2835 739.499 22.4297 743.579 21.264C744.826 20.9077 744.054 18.8935 743.364 23.0348C742.834 26.2164 746.719 27.74 749.428 28.0252C757.603 28.8858 762.109 1.11909 748.623 8.76124C745.963 10.2685 744.808 12.2795 743.901 15.2004C741.871 21.7358 739.961 27.6769 748.516 27.9178C751.548 28.0033 755.79 28.5537 757.369 25.3958C758.452 23.2302 763.933 12.2622 763.97 12.6248C764.336 16.2889 761.484 22.8402 764.935 25.6641C769.003 28.9925 770.732 25.0256 772.555 21.6396C775.848 15.5247 775.989 11.3476 775.989 20.2981C775.989 23.5356 775.989 26.7731 775.989 30.0106" stroke="black" stroke-width="3" stroke-linecap="round"/>
<path d="M774.058 10.6929C776.297 8.2674 779.201 2 782.751 2" stroke="black" stroke-width="3" stroke-linecap="round"/>
<path d="M481.396 79.2704C482.988 87.0845 489.965 97.3479 488.104 105.725C486.187 114.353 484.294 88.3233 484.294 79.485C484.294 76.7007 485.196 75.4069 488.157 75.4069C489.539 75.4069 496.54 77.7395 496.797 78.8948C497.484 81.986 491.656 87.176 489.875 89.4658C487.495 92.5248 484.597 91.947 489.123 88.9292" stroke="black" stroke-width="3" stroke-linecap="round"/>
<path d="M510.373 75.4068C508.713 74.0792 505.717 73.475 503.612 73.475C499.617 73.475 500.714 78.0098 500.714 80.9874C500.714 84.7438 500.194 86.0315 504.094 86.0315C508.02 86.0315 510.896 84.7048 512.626 80.7728C514.521 76.4671 514.184 74.4367 513.485 80.9874C513.061 84.9633 511.879 89.895 516.919 89.895C519.73 89.895 529.963 74.4445 526.739 72.0262C519.906 66.9011 530.714 58.0617 532.105 61.6162C532.822 63.4473 535.737 70.4532 534.305 72.2945C533.92 72.7895 534.348 72.5092 535.056 72.5092C537.639 72.5092 538.631 74.4738 539.564 76.6946C541.016 80.1531 547.825 105.393 538.705 106.261C534.375 106.674 527.464 103.553 527.973 98.3733C528.419 93.8355 532.845 89.5518 535.486 86.0315" stroke="black" stroke-width="3" stroke-linecap="round"/>
<path d="M539.349 71.5433C544.112 70.4441 547.826 65.9502 553.14 66.7676C555.132 67.074 550.434 79.3518 549.974 80.9875C548.681 85.5836 549.707 89.6002 554.91 85.1193C558.221 82.269 560.138 78.2651 562.262 74.5483C564.122 71.293 564.051 77.1761 564.462 78.6264C565.405 81.9538 567.144 82.6064 570.418 82.0607C577.215 80.9279 580.93 74.6595 582.062 68.2164C582.669 64.7616 583.631 56.7204 577.394 59.7381C572.296 62.205 570.153 67.7845 566.394 71.5433" stroke="black" stroke-width="3" stroke-linecap="round"/>
<path d="M598.107 48.0403C605.043 52.809 588.772 66.84 586.677 68.6457C588.685 67.3907 593.55 63.1142 595.907 65.748C596.886 66.8426 595.069 72.0443 594.726 73.2604C593.404 77.9495 592.161 82.9408 586.623 81.0948C582.619 79.7598 579.357 76.9188 578.413 72.7238C576.795 65.5317 577.823 59.1107 583.994 54.9087C586.675 53.0835 594.413 45.5008 598.107 48.0403Z" stroke="black" stroke-width="3" stroke-linecap="round"/>
<path d="M613.722 62.8504C610.175 62.1748 599.753 58.1237 599.287 64.4066C599.127 66.574 598.069 72.669 600.36 73.958C608.719 78.6597 615.38 69.4815 617.371 62.3138C617.488 61.8919 617.117 66.1922 621.556 63.6553C624.602 61.9146 628.304 55.2854 626.064 61.2406C624.299 65.9293 621.42 74.8806 624.346 79.2704" stroke="black" stroke-width="3" stroke-linecap="round"/>
<path d="M623.381 61.8845C627.74 59.1105 631.981 52.9919 635.4 58.021C637.053 60.4519 640.053 62.8111 638.191 65.9627C635.565 70.4061 631.296 74.4447 626.064 75.1922C623.43 75.5685 618.733 76.2361 622.415 73.4751" stroke="black" stroke-width="3" stroke-linecap="round"/>
<path d="M646.562 50.2939C646.44 56.5091 645.321 59.4179 649.459 64.2455C650.603 65.5803 653.299 69.5163 655.469 68.431C656.86 67.7357 660.084 59.986 660.084 61.2942C660.084 64.8767 659.927 68.1762 661.05 71.5433" stroke="black" stroke-width="3" stroke-linecap="round"/>
<path d="M669.743 58.9869C670.839 57.8904 681.197 44.7761 679.777 43.6402C675.552 40.2604 669.424 43.2217 668.24 47.8257C666.861 53.1908 668.114 65.739 675.484 66.6603C681.694 67.4365 675.878 59.9528 671.674 59.9528" stroke="black" stroke-width="3" stroke-linecap="round"/>
<path d="M697.753 50.294C694.083 50.294 680.544 44.4712 680.367 52.4404C680.218 59.1795 686.739 67.5592 693.675 61.8846C697.069 59.1077 697.753 53.227 697.753 49.1135C697.753 46.6387 696.448 54.1662 697.217 56.5186C698.263 59.7185 701.303 66.87 704.031 61.7772C705.159 59.6733 706.755 50.0443 707.036 50.6696C708.837 54.6701 710.31 59.1846 710.31 63.6017C710.31 64.0159 709.565 56.7897 710.9 56.1966C717.219 53.3883 715.621 60.9187 722.383 60.9187C730.872 60.9187 730.163 53.2714 726.783 47.0744C724.51 42.9069 715.569 51.958 718.037 53.1916" stroke="black" stroke-width="3" stroke-linecap="round"/>
<path d="M730.593 40.6352C734.017 34.1687 739.539 37.9631 741.11 43.8548C741.969 47.0757 736.811 53.6139 738.32 55.1234" stroke="black" stroke-width="3" stroke-linecap="round"/>
<path d="M742.184 59.9528C741.095 60.8235 739.555 61.267 738.32 61.8845" stroke="black" stroke-width="3" stroke-linecap="round"/>
<path d="M30.8382 244.347C24.4982 233.922 10.6037 230.434 5.34176 218.691C0.935615 208.858 2.15471 195.566 2.15471 185.001C2.15471 164.594 1.05046 144.497 9.26429 125.395C28.2443 81.2552 59.9139 33.3127 106.224 19.1416C117.483 15.6964 128.336 11.1078 140.179 11.1078C151.922 11.1078 166.974 13.9385 178.178 10.0712C199.679 2.64965 224.967 12.3845 244.861 22.8994C265.092 33.5923 284.363 51.6495 301.493 67.0853C316.712 80.7993 326.307 99.9842 330.421 121.249C335.881 149.461 326.315 176.061 314.977 200.032C310.076 210.392 300.717 219.209 293.525 227.761C278.81 245.262 261.986 251.186 241.552 256.268C222.842 260.922 204.422 266.432 185.288 269.485C166.558 272.474 146.584 267.671 127.676 267.671C106.763 267.671 83.684 268.884 66.141 255.491C62.2254 252.502 57.1505 252.745 53.8831 249.919C47.7169 244.586 41.928 239.723 35.2511 235.018" stroke="black" stroke-width="3" stroke-linecap="round"/>
<path d="M289.898 177.429C289.898 175.514 288.74 174.182 287.751 172.599C287.048 171.474 287 177.759 287 178.716C287 179.024 287.966 177.736 287.966 177.107C287.966 175.855 288.646 180.326 289.898 180.326" stroke="black" stroke-width="3" stroke-linecap="round"/>
<path d="M215.898 178.759C215.898 189.013 214.932 166.751 214.932 179.564C214.932 182.807 215.068 178.164 214.878 177.311C213.756 172.261 213.19 180.422 213 181.657" stroke="black" stroke-width="3" stroke-linecap="round"/>
<path d="M237 219.465H242" stroke="black" stroke-width="3" stroke-linecap="round"/>
<path d="M482.47 44.0173C483.309 44.4784 483.93 45.9452 484.249 46.7711C484.892 48.4364 484.62 50.371 484.182 52.0588C483.816 53.4687 482.415 53.2545 481.266 52.9672" stroke="black" stroke-width="3" stroke-linecap="round"/>
<path d="M486.945 26.806C487.82 28.7356 488.414 31.5067 490.015 32.9638C491.641 34.4436 495.302 33.1982 496.928 32.3901C500.953 30.3898 502.717 26.843 502.78 22.5223C502.79 21.7875 502.591 23.9803 502.521 24.712C502.222 27.8668 502.664 30.4199 503.64 33.4228C504.625 36.454 505.361 39.2823 505.361 42.4682" stroke="black" stroke-width="3" stroke-linecap="round"/>
<path d="M512.762 21.6427C514.042 26.8591 515.328 32.0742 516.549 37.3049" stroke="black" stroke-width="3" stroke-linecap="round"/>
<path d="M505.706 21.2985C511.222 20.3791 516.721 19.3477 522.228 18.3726" stroke="black" stroke-width="3" stroke-linecap="round"/>
<path d="M523.261 19.061C523.512 21.6047 524.865 23.7276 525.365 26.1559C525.557 27.0889 525.879 28.3106 526.799 28.7949C528.83 29.8638 529.644 26.7789 530.059 25.6109C530.607 24.0704 531.402 22.6389 531.589 20.9925C531.902 18.2439 531.034 15.6654 529.629 13.3335C528.296 11.1205 526.447 10.7934 525.671 13.3813" stroke="black" stroke-width="3" stroke-linecap="round"/>
<path d="M541.677 28.8715C543.948 29.3762 544.81 31.3467 545.358 33.3655C545.531 34.0032 546.161 36.8432 545.291 37.1329" stroke="black" stroke-width="3" stroke-linecap="round"/>
<path d="M593.522 141.804C597.285 143.792 602.356 145.625 605.257 148.913C605.738 149.458 605.838 149.874 606.499 150.094" stroke="black" stroke-width="3" stroke-linecap="round"/>
<path d="M624.882 138.199C621.428 141.73 618.748 145.422 616.591 149.734" stroke="black" stroke-width="3" stroke-linecap="round"/>
<path d="M610.178 202.361C609.173 202.642 608.256 203.506 607.367 204.044C606.809 204.381 606.721 204.623 606.736 205.249C606.761 206.351 609.337 206.047 610.14 206.147C611.108 206.268 611.916 206.664 612.893 206.664C613.877 206.664 614.789 206.836 615.771 206.836C618.465 206.836 621.096 206.62 623.775 206.281C624.885 206.141 626.042 205.975 627.064 205.497C627.702 205.199 628.176 204.71 628.766 204.35C629.211 204.078 629.971 203.628 629.971 203.049" stroke="black" stroke-width="3" stroke-linecap="round"/>
<path d="M584.189 167.078C584.247 167.423 585.019 170.833 585.049 170.749C585.425 169.716 585.394 168.506 585.394 167.422C585.394 165.604 585.394 167.823 585.394 168.455C585.394 169.845 585.573 171.374 585.145 172.719C585.022 173.105 585.049 172.848 585.049 172.557C585.049 171.425 585.049 170.294 585.049 169.162C585.049 168.098 585.049 167.033 585.049 165.969C585.049 165.229 586.56 166.074 586.751 166.294C587.555 167.218 587.328 169.118 587.077 170.214C586.977 170.65 586.671 171.381 586.168 171.381C585.169 171.381 585.293 169.396 585.222 168.761C585.165 168.258 584.466 165.725 584.82 165.271C585.215 164.762 586.891 164.871 587.201 165.395C588.418 167.455 587.359 170.163 586.771 172.222C586.604 172.806 586.081 171.511 586.044 171.342C585.846 170.45 585.91 169.536 585.91 168.627" stroke="black" stroke-width="3" stroke-linecap="round"/>
<path d="M631.52 162.603C631.275 163.142 630.905 168.621 632.151 167.403C633.001 166.572 633.291 165.456 633.375 164.305C633.409 163.837 633.569 162.519 632.983 162.258C631.953 161.801 630.804 166.811 630.688 167.699C630.647 168.015 630.538 168.53 630.908 168.636C631.173 168.712 631.401 167.589 631.52 167.288C631.666 166.918 633.436 163.384 632.82 162.985C631.817 162.336 630.642 166.2 631.405 166.867C631.734 167.155 632.615 167.443 633.059 167.221C633.567 166.967 632.781 164.835 632.6 164.467C631.897 163.032 631.077 163.167 630.248 164.372C629.321 165.721 629.435 166.372 629.971 167.766" stroke="black" stroke-width="3" stroke-linecap="round"/>
<path d="M311.28 219.664L310.92 233.361" stroke="black" stroke-width="3" stroke-linecap="round"/>
<path d="M311.641 228.315C314.561 228.173 317.414 227.939 320.292 227.594" stroke="black" stroke-width="3" stroke-linecap="round"/>
<path d="M324.257 216.78C324.726 222.054 323.582 227.774 323.175 233.001" stroke="black" stroke-width="3" stroke-linecap="round"/>
<path d="M333.989 214.257C331.848 217.825 328.582 222.27 328.582 226.673C328.582 229.536 329.904 230.153 332.668 230.397C337.224 230.801 341.668 230.722 345.884 229.036" stroke="black" stroke-width="3" stroke-linecap="round"/>
<path d="M330.385 221.826C333.832 220.701 337.611 221.105 341.198 221.105" stroke="black" stroke-width="3" stroke-linecap="round"/>
<path d="M336.152 216.419C340.283 214.354 343.455 213.536 348.047 213.536" stroke="black" stroke-width="3" stroke-linecap="round"/>
<path d="M359.582 214.978V232.28" stroke="black" stroke-width="3" stroke-linecap="round"/>
<path d="M360.663 216.78C364.448 216.149 368.371 216.419 372.198 216.419" stroke="black" stroke-width="3" stroke-linecap="round"/>
<path d="M371.117 215.698C371.719 219.982 371.287 223.711 370.756 227.954" stroke="black" stroke-width="3" stroke-linecap="round"/>
<path d="M379.407 216.059C379.928 218.298 380.577 220.517 381.27 222.707C381.751 224.229 382.504 228.179 384.334 229.116C386.116 230.028 389.449 229.809 391.283 229.336C394.714 228.45 398.192 224.217 397.771 220.424C397.658 219.405 396.397 218.784 395.588 218.402C393.615 217.47 391.932 215.998 389.941 215.138C385.849 213.37 382.187 216.111 378.687 217.861" stroke="black" stroke-width="3" stroke-linecap="round"/>
<path d="M403.198 216.059C403.03 219.908 402.612 223.786 403.198 227.594" stroke="black" stroke-width="3" stroke-linecap="round"/>
<path d="M405.361 222.187C409.665 222.187 414.695 222.755 418.337 220.024" stroke="black" stroke-width="3" stroke-linecap="round"/>
<path d="M419.419 212.815C419.394 218.225 419.058 223.631 419.058 229.036" stroke="black" stroke-width="3" stroke-linecap="round"/>
<path d="M436.563 213.789C435.146 219.684 434.96 226.047 434.873 232.102C434.847 233.917 435.414 231.361 435.562 230.913C436.459 228.186 437.43 225.405 437.628 222.523C437.837 219.482 437.946 217.395 436.344 214.854C434.928 212.607 432.371 214.322 430.819 215.574C429.052 216.999 427.39 218.321 427.72 220.833C428.037 223.242 430.428 222.883 432.181 223.384C432.889 223.586 429.806 226.671 429.317 226.937C427.652 227.84 426.057 228.762 424.449 229.567" stroke="black" stroke-width="3" stroke-linecap="round"/>
<path d="M443.607 229.848C444.088 227.249 445.103 224.599 445.955 222.132C447.073 218.89 448.092 215.216 450.024 212.318C450.109 212.191 450.502 211.257 450.682 211.661C451.107 212.618 451.45 213.637 451.762 214.634C453.351 219.72 453.944 224.827 453.186 230.13" stroke="black" stroke-width="3" stroke-linecap="round"/>
<path d="M121.684 66.1307C115.858 66.3046 116.108 72.1932 119.555 75.8036C124.555 81.0395 131.876 79.9212 135.458 74.0037C137.013 71.4335 138.234 68.5756 138.307 65.5359C138.32 64.9786 138.387 64.1133 138.134 63.5794C137.752 62.7729 137.524 65.3014 137.555 66.1933C137.695 70.1376 138.998 73.884 140.842 77.3375C141.393 78.3688 142.165 79.3975 142.533 80.4993" stroke="black" stroke-width="3" stroke-linecap="round"/>
<path d="M129.854 61.0594C136.48 60.8665 143.318 60.1772 149.858 59.0873" stroke="black" stroke-width="3" stroke-linecap="round"/>
<path d="M150.139 68.9481C153.014 68.3731 155.811 67.4189 158.607 66.5533C160.463 65.9789 162.344 65.4458 163.757 64.0334C164.57 63.2206 164.942 62.1453 164.383 61.0595C163.417 59.1832 161.224 59.642 159.593 60.2143C157.51 60.9454 153.278 62.5572 152.487 64.8629C151.709 67.1333 153.77 71.108 155.101 72.8142C158.457 77.1166 163.043 75.7851 166.762 72.8924" stroke="black" stroke-width="3" stroke-linecap="round"/>
<path d="M173.524 57.115C174.398 61.489 176.125 65.8437 176.591 70.2784C176.599 70.3527 176.713 71.7889 176.591 70.6071C176.436 69.0935 176.014 67.656 175.511 66.2245C175.125 65.1243 173.799 62.9421 175.997 63.6576C178.615 64.5101 181.201 65.2541 183.995 65.2541C186.589 65.2541 186.447 58.849 186.484 57.0837C186.546 54.0753 187.412 63.03 187.861 66.0054C188.171 68.0594 188.622 71.0864 190.146 72.6106" stroke="black" stroke-width="3" stroke-linecap="round"/>
<path d="M193.527 54.5795C194.698 60.2015 196.422 65.7004 198.035 71.2019" stroke="black" stroke-width="3" stroke-linecap="round"/>
<path d="M205.078 55.9882C202.738 58.1254 200.486 60.6976 197.268 61.3412C196.58 61.4786 197.679 61.4978 198.035 61.7481C201.682 64.3108 206.051 67.2576 210.713 67.2576" stroke="black" stroke-width="3" stroke-linecap="round"/>
<path d="M217.193 69.5116C217.595 66.0687 217.919 62.8592 216.942 59.4942C216.483 57.9114 216.233 56.514 216.536 54.8612C216.801 53.412 218.447 48.9638 220.495 49.5708C222.114 50.0505 223.213 51.9321 224.017 53.2647C225.701 56.056 226.821 58.8571 227.429 62.0612C227.863 64.3436 228.006 66.8405 228.807 69.042C229.075 69.7797 229.815 68.1927 229.871 68.1029" stroke="black" stroke-width="3" stroke-linecap="round"/>
<path d="M219.447 61.9047C222.016 61.3907 224.49 60.4452 227.054 59.9325" stroke="black" stroke-width="3" stroke-linecap="round"/>
<path d="M89 72.465C90.6151 77.5245 92.1503 82.6136 93.7334 87.6794" stroke="black" stroke-width="3" stroke-linecap="round"/>
<path d="M86.4506 72.0957C83.2269 69.7512 77.7695 72.9851 75.8005 75.6833C75.5412 76.0386 73.511 78.4508 74.11 78.5008C77.8112 78.8092 81.7266 78.6224 85.4363 78.5008C86.8284 78.4551 87.4556 77.9733 88.5544 78.8576C89.8913 79.9337 89.1157 80.3093 88.5544 81.7127C87.3964 84.6075 85.2587 86.4661 82.5437 88.0239C81.6784 88.5204 79.0915 88.8425 78.6744 89.6768" stroke="black" stroke-width="3" stroke-linecap="round"/>
<path d="M234.64 42.5604C235.88 42.5604 240.772 42.041 241.465 43.4256C241.767 44.0294 241.176 45.8883 241.152 46.5016C241.087 48.2052 241.128 49.9157 241.128 51.6204C241.128 53.3833 236.937 56.2044 238.533 57.2679" stroke="black" stroke-width="3" stroke-linecap="round"/>
<path d="M241.993 64.6216C241.405 64.0683 240.302 63.5811 241.705 63.7564C241.943 63.7862 240.888 64.189 241.128 64.189" stroke="black" stroke-width="3" stroke-linecap="round"/>
<path d="M222.705 188.237C213.189 190.241 203.052 191.645 192.929 191.446C190.035 191.389 187.14 190.525 184.429 189.959C182.031 189.459 179.697 188.755 177.626 187.855C175.607 186.978 173.817 185.776 171.892 184.809C170.77 184.244 169.88 183.641 169.032 182.924C167.967 182.022 166.513 181.129 165.878 180.072C165.243 179.014 164.3 177.871 164.061 176.749C163.749 175.292 164.672 173.728 165.972 172.524C167.504 171.106 169.759 170.235 172.334 169.648C177.022 168.58 181.961 167.992 186.941 167.764C191.452 167.557 195.903 167.471 200.426 167.471C204.894 167.471 209.477 167.358 213.831 168.089C220.367 169.185 226.623 171.056 228.185 175.352C228.934 177.411 229.375 179.715 228.573 181.794C227.7 184.055 223.031 185.025 220.059 186.043" stroke="black" stroke-width="3" stroke-linecap="round"/>
<path d="M269.691 187.735C263.97 187.886 258.237 188.408 252.509 188.312C248.54 188.246 244.741 186.769 241.555 185.184C239.134 183.98 237.65 182.341 236.078 180.605C234.435 178.792 234.869 175.745 236.055 173.861C237.476 171.606 239.242 169.662 242.191 168.232C244.756 166.988 247.745 166.018 250.634 165.217C254.159 164.239 257.835 164.495 261.577 164.495C267.849 164.495 274.119 164.358 280.361 164.856C284.326 165.172 288.298 166.4 291.838 167.663C294.517 168.618 298.027 169.626 299.826 171.391C300.95 172.494 302.358 174.367 301.917 175.786C301.3 177.77 299.535 179.377 297.713 180.878C295.372 182.805 292.764 184.834 289.94 186.411C287.371 187.847 283.742 187.867 280.645 187.879C277.558 187.891 274.554 188.368 271.486 188.448C268.191 188.534 264.954 188.277 261.714 187.879" stroke="black" stroke-width="3" stroke-linecap="round"/>
</svg>
